<svg width="98" height="170" viewBox="0 0 98 170" fill="none" xmlns="http://www.w3.org/2000/svg">
<path fill-rule="evenodd" clip-rule="evenodd" d="M97.143 7.28571C97.143 7.31052 97.1422 7.3353 97.1405 7.36004L92.2857 161.5H92.2854C92.2854 166.195 72.7138 170 48.5711 170C24.4284 170 4.8568 166.195 4.8568 161.5C4.8568 161.497 4.85681 161.494 4.85683 161.49L0.00204153 7.35087C0.000874347 7.33089 0.000243606 7.31088 0.000151359 7.29086L0 7.28605H0.000139509V7.28571C0.000139509 3.26193 21.7463 0 48.5716 0C75.3968 0 97.143 3.26193 97.143 7.28571Z" fill="url(#paint0_linear_1753_48127)" fill-opacity="0.6"/>
<path d="M10.9277 3.98157L31.5706 1.21484L35.2134 165.143H15.7849L10.9277 3.98157Z" fill="url(#paint1_linear_1753_48127)" fill-opacity="0.4"/>
<path d="M87.4277 3.64397L77.6495 2.42969L76.4992 170.001L81.6759 166.755L87.4277 3.64397Z" fill="url(#paint2_linear_1753_48127)" fill-opacity="0.1"/>
<mask id="mask0_1753_48127" style="mask-type:alpha" maskUnits="userSpaceOnUse" x="3" y="7" width="91" height="158">
<path fill-rule="evenodd" clip-rule="evenodd" d="M93.4997 14.0264C93.4997 14.0481 93.499 14.0698 93.4977 14.0914L89.0069 156.675C89.0069 161.017 70.9032 164.537 48.5711 164.537C26.2391 164.537 8.13544 161.017 8.13544 156.675L3.64463 14.0914C3.64326 14.0698 3.64258 14.0481 3.64258 14.0264C3.64258 10.3044 23.7578 7.28711 48.5711 7.28711C73.3845 7.28711 93.4997 10.3044 93.4997 14.0264Z" fill="#E5E5E5"/>
</mask>
<g mask="url(#mask0_1753_48127)">
<path class="water" d="M819.769 86.0201L914.674 124.193C935.413 132.535 949 152.645 949 174.999C949 205.141 924.641 229.616 894.499 229.759L-567.926 236.719C-600.506 236.874 -627 210.506 -627 177.925C-627 153.824 -612.292 132.164 -589.89 123.275L-498.871 87.1598C-459.283 71.4521 -415.758 68.5932 -374.457 78.9879L-263.545 106.902C-201.923 122.411 -137.493 123.015 -75.5909 108.666L33.3414 83.4146C91.3216 69.9744 151.57 69.6422 209.695 82.4423L345.517 112.353C399.857 124.319 456.096 124.817 510.639 113.814L702.066 75.1984C741.516 67.2404 782.432 71.0023 819.769 86.0201Z" fill="#6A8CDF"/>
<path class="water" d="M-725.955 85.9244L-821.619 124.232C-842.386 132.548 -856 152.665 -856 175.035C-856 205.157 -831.657 229.615 -801.535 229.758L667.965 236.72C700.524 236.875 727 210.523 727 177.964C727 153.846 712.262 132.178 689.831 123.317L598.052 87.0612C558.443 71.4143 514.927 68.5663 473.617 78.9173L361.124 107.104C299.751 122.482 235.605 123.081 173.955 108.854L62.9647 83.239C5.22168 69.9129 -54.7609 69.5835 -112.647 82.2746L-250.55 112.509C-304.666 124.374 -360.657 124.867 -414.974 113.959L-608.249 75.1423C-647.698 67.2195 -688.602 70.9663 -725.955 85.9244Z" fill="#7DB8E3"/>
</g>
<path d="M0 7.89258C6.694 10.5478 11.3115 11.5058 20.6429 12.7497L24.2857 168.785L6.07143 165.75L0 7.89258Z" fill="url(#paint3_linear_1753_48127)"/>
<path d="M97.1426 7.89258L76.4997 12.7497L72.8569 168C80.2242 166.647 84.773 165.883 91.5711 162.5L97.1426 7.89258Z" fill="url(#paint4_linear_1753_48127)"/>
<path d="M7.28516 10.9287L27.928 12.7501L31.5709 168.786L13.3566 165.75L7.28516 10.9287Z" fill="url(#paint5_linear_1753_48127)" fill-opacity="0.7"/>
<path d="M91.0723 10.9287L80.7508 12.7501L79.5366 168.786L85.0008 165.75L91.0723 10.9287Z" fill="url(#paint6_linear_1753_48127)"/>
<path d="M96.1429 7.28571C96.1429 7.30558 96.1253 7.53669 95.5649 7.94752C95.0318 8.33825 94.1821 8.75695 92.9916 9.17916C90.6228 10.0192 87.1395 10.7929 82.7683 11.4486C74.0413 12.7576 61.9503 13.5714 48.5714 13.5714C35.1925 13.5714 23.1016 12.7576 14.3746 11.4486C10.0033 10.7929 6.52002 10.0192 4.15123 9.17916C2.96072 8.75695 2.11104 8.33825 1.578 7.94752C1.01756 7.53669 1 7.30558 1 7.28571C1 7.26585 1.01756 7.03473 1.578 6.62391C2.11104 6.23317 2.96072 5.81448 4.15123 5.39227C6.52002 4.5522 10.0033 3.77856 14.3746 3.12287C23.1016 1.81382 35.1925 1 48.5714 1C61.9503 1 74.0413 1.81382 82.7683 3.12287C87.1395 3.77856 90.6228 4.5522 92.9916 5.39227C94.1821 5.81448 95.0318 6.23317 95.5649 6.62391C96.1253 7.03473 96.1429 7.26585 96.1429 7.28571Z" fill="url(#paint7_linear_1753_48127)" fill-opacity="0.2" stroke="url(#paint8_linear_1753_48127)" stroke-width="2"/>
<mask id="path-12-inside-1_1753_48127" fill="white">
<path fill-rule="evenodd" clip-rule="evenodd" d="M97.143 7.28571C97.143 7.31052 97.1422 7.3353 97.1405 7.36004L92.2857 161.5H92.2854C92.2854 166.195 72.7138 170 48.5711 170C24.4284 170 4.8568 166.195 4.8568 161.5C4.8568 161.497 4.85681 161.494 4.85683 161.49L0.00204153 7.35087C0.000874347 7.33089 0.000243606 7.31088 0.000151359 7.29086L0 7.28605H0.000139509V7.28571C0.000139509 3.26193 21.7463 0 48.5716 0C75.3968 0 97.143 3.26193 97.143 7.28571Z"/>
</mask>
<path d="M97.1405 7.36004L96.1427 7.2936L96.1416 7.31106L96.141 7.32856L97.1405 7.36004ZM92.2857 161.5V162.5H93.2547L93.2852 161.532L92.2857 161.5ZM92.2854 161.5V160.5H91.2854V161.5H92.2854ZM4.85683 161.49L5.85682 161.496L5.85692 161.478L5.85634 161.459L4.85683 161.49ZM0.00204153 7.35087L1.00155 7.31939L1.00112 7.30597L1.00034 7.29257L0.00204153 7.35087ZM0.000151359 7.29086L1.00014 7.28625L1.00008 7.27281L0.999656 7.25938L0.000151359 7.29086ZM0 7.28605V6.28605H-1.03199L-0.999504 7.31753L0 7.28605ZM0.000139509 7.28605V8.28605H1.00014V7.28605H0.000139509ZM98.1383 7.42649C98.1414 7.37962 98.143 7.33268 98.143 7.28571H96.143C96.143 7.28836 96.1429 7.29097 96.1427 7.2936L98.1383 7.42649ZM93.2852 161.532L98.14 7.39152L96.141 7.32856L91.2862 161.469L93.2852 161.532ZM92.2854 162.5H92.2857V160.5H92.2854V162.5ZM91.2854 161.5C91.2854 161.713 91.1788 162.041 90.7084 162.488C90.2377 162.936 89.4886 163.415 88.4324 163.9C86.3259 164.869 83.2145 165.766 79.2909 166.529C71.4601 168.052 60.5985 169 48.5711 169V171C60.6865 171 71.682 170.046 79.6726 168.492C83.6597 167.717 86.9501 166.783 89.2678 165.718C90.4237 165.186 91.3922 164.598 92.0861 163.938C92.7803 163.279 93.2854 162.461 93.2854 161.5H91.2854ZM48.5711 169C36.5437 169 25.6821 168.052 17.8513 166.529C13.9276 165.766 10.8163 164.869 8.70978 163.9C7.6536 163.415 6.90444 162.936 6.43376 162.488C5.96336 162.041 5.8568 161.713 5.8568 161.5H3.8568C3.8568 162.461 4.36186 163.279 5.05609 163.938C5.75003 164.598 6.71851 165.186 7.87439 165.718C10.192 166.783 13.4825 167.717 17.4696 168.492C25.4602 170.046 36.4557 171 48.5711 171V169ZM5.8568 161.5C5.8568 161.499 5.85681 161.498 5.85682 161.496L3.85685 161.485C3.85682 161.49 3.8568 161.495 3.8568 161.5H5.8568ZM-0.997463 7.38235L3.85733 161.522L5.85634 161.459L1.00155 7.31939L-0.997463 7.38235ZM-0.999838 7.29547C-0.999663 7.33343 -0.998467 7.37134 -0.996257 7.40917L1.00034 7.29257C1.00022 7.29043 1.00015 7.28833 1.00014 7.28625L-0.999838 7.29547ZM-0.999504 7.31753L-0.999353 7.32234L0.999656 7.25938L0.999504 7.25457L-0.999504 7.31753ZM0.000139509 6.28605H0V8.28605H0.000139509V6.28605ZM-0.99986 7.28571V7.28605H1.00014V7.28571H-0.99986ZM48.5716 -1C35.1252 -1 22.9304 -0.182856 14.078 1.145C9.65958 1.80777 6.02978 2.60406 3.48288 3.5073C2.21554 3.95675 1.15672 4.45304 0.395733 5.01087C-0.33785 5.54861 -0.99986 6.29963 -0.99986 7.28571H1.00014C1.00014 7.26585 1.0177 7.03473 1.57814 6.62391C2.11118 6.23317 2.96085 5.81448 4.15137 5.39227C6.52016 4.5522 10.0035 3.77856 14.3747 3.12287C23.1018 1.81382 35.1927 1 48.5716 1V-1ZM98.143 7.28571C98.143 6.29963 97.481 5.54861 96.7474 5.01087C95.9864 4.45304 94.9276 3.95675 93.6603 3.5073C91.1134 2.60406 87.4836 1.80777 83.0651 1.145C74.2127 -0.182856 62.0179 -1 48.5716 -1V1C61.9505 1 74.0414 1.81382 82.7684 3.12287C87.1397 3.77856 90.623 4.5522 92.9918 5.39227C94.1823 5.81448 95.032 6.23317 95.565 6.62391C96.1254 7.03473 96.143 7.26585 96.143 7.28571H98.143Z" fill="url(#paint9_linear_1753_48127)" mask="url(#path-12-inside-1_1753_48127)"/>
<defs>
<linearGradient id="paint0_linear_1753_48127" x1="48.5715" y1="-40.0715" x2="48.5715" y2="170" gradientUnits="userSpaceOnUse">
<stop stop-color="#579ED1"/>
<stop offset="0.795666" stop-color="#5C5C6D"/>
</linearGradient>
<linearGradient id="paint1_linear_1753_48127" x1="20.642" y1="1.90653" x2="23.7937" y2="156.829" gradientUnits="userSpaceOnUse">
<stop stop-color="white"/>
<stop offset="1" stop-color="white" stop-opacity="0"/>
</linearGradient>
<linearGradient id="paint2_linear_1753_48127" x1="75.924" y1="2.51375" x2="75.924" y2="198.565" gradientUnits="userSpaceOnUse">
<stop stop-color="white"/>
<stop offset="1" stop-color="white" stop-opacity="0"/>
</linearGradient>
<linearGradient id="paint3_linear_1753_48127" x1="12.1429" y1="12.1426" x2="12.1429" y2="195.5" gradientUnits="userSpaceOnUse">
<stop stop-color="#BADAF2"/>
<stop offset="1" stop-color="white" stop-opacity="0"/>
</linearGradient>
<linearGradient id="paint4_linear_1753_48127" x1="97.1426" y1="83.7854" x2="77.1069" y2="83.7854" gradientUnits="userSpaceOnUse">
<stop stop-color="#BADAF2" stop-opacity="0.921875"/>
<stop offset="1" stop-color="white" stop-opacity="0"/>
</linearGradient>
<linearGradient id="paint5_linear_1753_48127" x1="19.428" y1="12.143" x2="19.428" y2="195.5" gradientUnits="userSpaceOnUse">
<stop stop-color="white"/>
<stop offset="1" stop-color="white" stop-opacity="0"/>
</linearGradient>
<linearGradient id="paint6_linear_1753_48127" x1="78.9294" y1="12.143" x2="78.9294" y2="195.5" gradientUnits="userSpaceOnUse">
<stop stop-color="white"/>
<stop offset="1" stop-color="white" stop-opacity="0"/>
</linearGradient>
<linearGradient id="paint7_linear_1753_48127" x1="48.5714" y1="-6.5" x2="48.5714" y2="14.5714" gradientUnits="userSpaceOnUse">
<stop stop-color="#9BC4EA"/>
<stop offset="1" stop-color="#1F1F23"/>
</linearGradient>
<linearGradient id="paint8_linear_1753_48127" x1="48.5714" y1="-9.71429" x2="48.5714" y2="14.5714" gradientUnits="userSpaceOnUse">
<stop stop-color="#EAF4FC"/>
<stop offset="1" stop-color="white"/>
</linearGradient>
<linearGradient id="paint9_linear_1753_48127" x1="48.5715" y1="0" x2="48.5715" y2="170" gradientUnits="userSpaceOnUse">
<stop stop-color="#CCE2F3"/>
<stop offset="1" stop-color="#DDECF6"/>
</linearGradient>
</defs>
</svg>
