<svg width="24" height="24" viewBox="0 0 24 24" fill="none" xmlns="http://www.w3.org/2000/svg">
<path fill-rule="evenodd" clip-rule="evenodd" d="M16.4109 2.76862L16.4119 3.51824C19.1665 3.73413 20.9862 5.61119 20.9891 8.48975L21 16.9155C21.0039 20.054 19.0322 21.985 15.8718 21.99L8.15188 22C5.01119 22.004 3.01482 20.027 3.01087 16.8795L3.00001 8.55272C2.99606 5.65517 4.75153 3.78311 7.50617 3.53024L7.50518 2.78061C7.5042 2.34083 7.83001 2.01 8.26444 2.01C8.69886 2.009 9.02468 2.33883 9.02567 2.77861L9.02666 3.47826L14.8914 3.47027L14.8904 2.77062C14.8894 2.33084 15.2152 2.001 15.6497 2C16.0742 1.999 16.4099 2.32884 16.4109 2.76862ZM4.52149 8.86183L19.4696 8.84184V8.49202C19.4272 6.3431 18.349 5.21566 16.4139 5.04774L16.4148 5.81736C16.4148 6.24714 16.0801 6.58797 15.6556 6.58797C15.2212 6.58897 14.8944 6.24914 14.8944 5.81936L14.8934 5.00976L9.02865 5.01776L9.02963 5.82635C9.02963 6.25714 8.7048 6.59697 8.27038 6.59697C7.83595 6.59797 7.50915 6.25914 7.50915 5.82835L7.50816 5.05874C5.58287 5.25164 4.51755 6.38308 4.52051 8.55099L4.52149 8.86183ZM15.2399 13.404V13.415C15.2498 13.8748 15.625 14.2236 16.0801 14.2136C16.5244 14.2026 16.8789 13.8218 16.869 13.3621C16.8483 12.9223 16.4919 12.5635 16.0485 12.5645C15.5944 12.5744 15.2389 12.9443 15.2399 13.404ZM16.0555 17.8916C15.6013 17.8816 15.235 17.5027 15.234 17.043C15.2241 16.5832 15.5885 16.2024 16.0426 16.1914H16.0525C16.5166 16.1914 16.8927 16.5702 16.8927 17.04C16.8937 17.5097 16.5185 17.8906 16.0555 17.8916ZM11.1719 13.4211C11.1916 13.8809 11.5678 14.2397 12.022 14.2197C12.4663 14.1987 12.8207 13.8189 12.801 13.3591C12.7901 12.9094 12.4248 12.5595 11.9805 12.5605C11.5263 12.5805 11.1709 12.9613 11.1719 13.4211ZM12.0262 17.8467C11.572 17.8667 11.1968 17.5078 11.1761 17.0481C11.1761 16.5883 11.5305 16.2085 11.9847 16.1875C12.429 16.1865 12.7953 16.5363 12.8052 16.9851C12.8259 17.4459 12.4705 17.8257 12.0262 17.8467ZM7.10437 13.4563C7.12411 13.916 7.50028 14.2759 7.95445 14.2549C8.39875 14.2349 8.7532 13.8541 8.73247 13.3943C8.7226 12.9445 8.35728 12.5947 7.912 12.5957C7.45783 12.6157 7.10338 12.9965 7.10437 13.4563ZM7.95836 17.8525C7.50419 17.8735 7.12901 17.5137 7.10827 17.0539C7.10728 16.5942 7.46272 16.2133 7.91689 16.1934C8.36119 16.1924 8.72749 16.5422 8.73736 16.992C8.7581 17.4517 8.40365 17.8325 7.95836 17.8525Z" fill="#31313A"/>
</svg>
