<svg width="26" height="26" viewBox="0 0 26 26" fill="none" xmlns="http://www.w3.org/2000/svg">
<g clip-path="url(#clip0_1638_59341)">
<path d="M5.07813 17.2656C5.86843 17.2656 6.52382 17.7856 6.67184 18.5301C6.78128 19.0802 7.3158 19.4375 7.86612 19.3281C8.41623 19.2187 8.77353 18.684 8.66415 18.1339C8.50109 17.314 8.05259 16.5728 7.40132 16.0469C6.75233 15.523 5.92729 15.2344 5.07813 15.2344C3.06206 15.2344 1.42188 16.8746 1.42188 18.8906V22.3438C1.42188 24.3598 3.06206 26 5.07813 26C6.78199 26 8.24525 24.8431 8.63652 23.1866C8.76545 22.6407 8.42745 22.0937 7.88155 21.9647C7.33545 21.8358 6.78859 22.1738 6.65961 22.7197C6.48593 23.4551 5.83558 23.9688 5.07813 23.9688C4.18209 23.9688 3.45313 23.2398 3.45313 22.3438V18.8906C3.45313 17.9946 4.18209 17.2656 5.07813 17.2656Z" fill="white"/>
<path d="M23.4609 7.59921V6.9226C23.4609 3.10548 20.3555 0 16.5383 0C14.8761 0 13.269 0.598 12.013 1.68391C11.182 2.40226 10.539 3.30286 10.1293 4.30376C9.4995 3.98196 8.79618 3.80859 8.07422 3.80859C5.58213 3.80859 3.55469 5.83603 3.55469 8.32812V9.25173C1.52232 9.7075 0 11.5111 0 13.6602C0 13.8055 0.00680469 13.9519 0.0202109 14.0953C0.0723125 14.6538 0.567531 15.0642 1.12577 15.0122C1.68426 14.9601 2.09473 14.465 2.04262 13.9065C2.03506 13.8257 2.03125 13.7428 2.03125 13.6602C2.03125 12.2881 3.16672 11.1719 4.56249 11.1719H4.57031C5.13124 11.1719 5.58594 10.7172 5.58594 10.1562V8.32812C5.58594 6.95607 6.70216 5.83984 8.07422 5.83984C8.78693 5.83984 9.467 6.14717 9.94002 6.68302C10.2007 6.97831 10.6087 7.09637 10.9867 6.98562C11.3648 6.87497 11.6447 6.55566 11.7051 6.16637C12.0703 3.80895 14.1482 2.03125 16.5383 2.03125C19.2354 2.03125 21.4297 4.22551 21.4297 6.9226V8.17172C21.4297 8.54755 21.6372 8.89266 21.9692 9.06882C23.2026 9.72344 23.9688 10.9963 23.9688 12.3906C23.9688 13.4326 23.5422 14.4013 22.7677 15.1182C22.3561 15.4993 22.3313 16.1419 22.7124 16.5535C22.9126 16.7697 23.1848 16.8791 23.4579 16.8791C23.7047 16.8791 23.9522 16.7897 24.1477 16.6088C25.3422 15.503 26 14.0049 26 12.3906C26 10.4542 25.0412 8.67024 23.4609 7.59921Z" fill="white"/>
<path d="M13.7617 15.2344C11.7457 15.2344 10.1055 16.8746 10.1055 18.8906V22.3438C10.1055 24.3598 11.7457 26 13.7617 26C15.7778 26 17.418 24.3598 17.418 22.3438V18.8906C17.418 16.8746 15.7778 15.2344 13.7617 15.2344ZM15.3867 22.3438C15.3867 23.2398 14.6578 23.9688 13.7617 23.9688C12.8657 23.9688 12.1367 23.2398 12.1367 22.3438V18.8906C12.1367 17.9946 12.8657 17.2656 13.7617 17.2656C14.6578 17.2656 15.3867 17.9946 15.3867 18.8906V22.3438Z" fill="white"/>
<path d="M23.1055 23.9688H22.3781C23.8617 22.287 24.0557 21.458 24.0557 20.9219C24.0557 19.5218 22.9167 18.3828 21.5166 18.3828C21.5105 18.3828 21.5046 18.3836 21.4986 18.3837C21.4925 18.3836 21.4866 18.3828 21.4805 18.3828C20.0805 18.3828 18.9415 19.5218 18.9415 20.9219C18.9415 21.4828 19.3962 21.9375 19.9571 21.9375C20.518 21.9375 20.9727 21.4828 20.9727 20.9219C20.9727 20.6466 21.2052 20.4141 21.4805 20.4141C21.4866 20.4141 21.4925 20.4132 21.4985 20.4131C21.5046 20.4132 21.5105 20.4141 21.5166 20.4141C21.7883 20.4141 22.0183 20.6406 22.0243 20.9112C22.0144 20.9635 21.8893 21.4866 20.6943 22.8044C19.9864 23.5851 19.282 24.2255 19.2752 24.2317C18.964 24.5136 18.8584 24.958 19.0095 25.3498C19.1605 25.7416 19.5371 26 19.9571 26H23.1055C23.6665 26 24.1211 25.5453 24.1211 24.9844C24.1211 24.4234 23.6665 23.9688 23.1055 23.9688Z" fill="white"/>
</g>
<defs>
<clipPath id="clip0_1638_59341">
<rect width="26" height="26" fill="white"/>
</clipPath>
</defs>
</svg>
