<svg width="20" height="20" viewBox="0 0 20 20" fill="none" xmlns="http://www.w3.org/2000/svg">
<path fill-rule="evenodd" clip-rule="evenodd" d="M3.78323 1.66675H6.5999C7.7749 1.66675 8.71657 2.62508 8.71657 3.80091V6.64175C8.71657 7.82508 7.7749 8.77508 6.5999 8.77508H3.78323C2.61656 8.77508 1.66656 7.82508 1.66656 6.64175V3.80091C1.66656 2.62508 2.61656 1.66675 3.78323 1.66675ZM3.78323 11.2248H6.5999C7.7749 11.2248 8.71657 12.1757 8.71657 13.359V16.1998C8.71657 17.3748 7.7749 18.3332 6.5999 18.3332H3.78323C2.61656 18.3332 1.66656 17.3748 1.66656 16.1998V13.359C1.66656 12.1757 2.61656 11.2248 3.78323 11.2248ZM16.2166 1.66675H13.4C12.225 1.66675 11.2833 2.62508 11.2833 3.80091V6.64175C11.2833 7.82508 12.225 8.77508 13.4 8.77508H16.2166C17.3833 8.77508 18.3333 7.82508 18.3333 6.64175V3.80091C18.3333 2.62508 17.3833 1.66675 16.2166 1.66675ZM13.4 11.2248H16.2166C17.3833 11.2248 18.3333 12.1757 18.3333 13.359V16.1998C18.3333 17.3748 17.3833 18.3332 16.2166 18.3332H13.4C12.225 18.3332 11.2833 17.3748 11.2833 16.1998V13.359C11.2833 12.1757 12.225 11.2248 13.4 11.2248Z" fill="#989898"/>
</svg>
