<svg width="20" height="20" viewBox="0 0 20 20" fill="none" xmlns="http://www.w3.org/2000/svg">
<path fill-rule="evenodd" clip-rule="evenodd" d="M6.39163 1.6665H13.6166C16.4416 1.6665 18.3333 3.64984 18.3333 6.59984V13.4082C18.3333 16.3498 16.4416 18.3332 13.6166 18.3332H6.39163C3.56663 18.3332 1.66663 16.3498 1.66663 13.4082V6.59984C1.66663 3.64984 3.56663 1.6665 6.39163 1.6665ZM9.99555 7.55355C9.59638 7.55355 9.27055 7.22605 9.27055 6.82438C9.27055 6.42271 9.59971 6.09521 10.0039 6.09521C10.4064 6.09521 10.733 6.42271 10.733 6.82438C10.733 7.22605 10.4064 7.55355 9.99555 7.55355ZM9.99555 8.73921C10.3972 8.73921 10.7247 9.06671 10.7247 9.46838V13.1517C10.7247 13.5534 10.3972 13.8809 9.99555 13.8809C9.59388 13.8809 9.26638 13.5534 9.26638 13.1517V9.46838C9.26638 9.06671 9.59388 8.73921 9.99555 8.73921Z" fill="#989898" />
</svg>
