<svg width="41" height="44" viewBox="0 0 41 44" fill="none" xmlns="http://www.w3.org/2000/svg">
<path id="Union" fill-rule="evenodd" clip-rule="evenodd" d="M29.6813 0.259359L40.7661 11.9072C40.9161 12.0649 41 12.2752 41 12.494V40.6183C41 42.4829 39.4958 44 37.6468 44H12.5573C10.7083 44 9.2041 42.4821 9.2041 40.6164V33H2.50872C1.1254 33 0 31.8623 0 30.4638L0 17.7671C0 16.3685 1.1254 15.2308 2.50872 15.2308H9.2041V3.38955C9.2041 1.52058 10.7083 0 12.5573 0L29.0784 0C29.3058 0 29.5235 0.0936719 29.6813 0.259359ZM38.3854 11.8461L29.2857 2.2843V11.8461L38.3854 11.8461ZM1.67353 30.4638C1.67353 30.9292 2.04812 31.3077 2.50872 31.3077H25.1035C25.564 31.3077 25.9388 30.9292 25.9388 30.4638V17.7671C25.9388 17.3017 25.564 16.9231 25.1035 16.9231H2.50872C2.04821 16.9231 1.67353 17.3017 1.67353 17.7671L1.67353 30.4638ZM37.6467 42.3077C38.5729 42.3077 39.3265 41.5498 39.3265 40.6183V13.5384L28.4489 13.5384C27.9869 13.5384 27.6122 13.1596 27.6122 12.6923V1.69228L12.5573 1.69228C11.6311 1.69228 10.8775 2.4536 10.8775 3.38955V15.2308H25.1034C26.4868 15.2308 27.6122 16.3685 27.6122 17.7671V30.4638C27.6122 31.8623 26.4868 33 25.1034 33H10.8775V40.6165C10.8775 41.5491 11.6311 42.3077 12.5573 42.3077H37.6467ZM9.1763 21.463C9.47713 21.7837 9.70573 22.1761 9.8626 22.6404C10.0195 23.1049 10.0979 23.6776 10.098 24.3583C10.098 24.9568 10.0246 25.4722 9.87756 25.9053C9.69766 26.4341 9.44118 26.8621 9.10772 27.1893C8.85609 27.4372 8.51617 27.6306 8.08795 27.7693C7.76774 27.872 7.33952 27.9232 6.80338 27.9232H4.07269V20.6549H6.72494C7.32321 20.6549 7.77904 20.701 8.09279 20.7937C8.51447 20.9193 8.87572 21.1424 9.1763 21.463ZM8.0707 26.3266C8.22587 26.1845 8.35266 25.9508 8.45056 25.6252C8.54872 25.2997 8.59792 24.8559 8.59783 24.2939C8.59783 23.7319 8.54863 23.3006 8.45056 23C8.35266 22.6991 8.21525 22.4643 8.03892 22.2957C7.86241 22.1274 7.63857 22.0133 7.36723 21.9537C7.16455 21.9074 6.76752 21.8843 6.17571 21.8843H5.52374V26.6985H6.60724C7.01243 26.6985 7.30511 26.6754 7.48476 26.6291C7.72007 26.5697 7.91544 26.4688 8.0707 26.3266ZM23.7375 25.2506C23.6164 25.7828 23.417 26.173 23.1392 26.4207C22.8614 26.6686 22.5297 26.7926 22.1439 26.7926C21.621 26.7926 21.1962 26.5975 20.8694 26.2077C20.5425 25.8176 20.3791 25.163 20.3791 24.2442C20.3791 23.3784 20.5449 22.752 20.8767 22.3653C21.2085 21.9785 21.6407 21.785 22.1734 21.785C22.5592 21.785 22.8868 21.8942 23.1564 22.1123C23.4261 22.3305 23.6035 22.628 23.6884 23.0047L25.1249 22.6575C24.9616 22.0758 24.7164 21.6297 24.3896 21.319C23.8405 20.7935 23.1264 20.5308 22.2472 20.5308C21.2403 20.5308 20.4281 20.8654 19.8105 21.5348C19.1927 22.2041 18.8837 23.1435 18.8837 24.3533C18.8837 25.4968 19.191 26.3984 19.8056 27.0578C20.4199 27.7172 21.2044 28.0469 22.1589 28.0469C22.9301 28.0469 23.5667 27.8544 24.0685 27.4693C24.5701 27.0843 24.9289 26.4952 25.1445 25.7019L23.7375 25.2506ZM14.5105 20.5308C15.5696 20.5308 16.4168 20.8629 17.0527 21.5274C17.6884 22.1916 18.0062 23.1153 18.0062 24.2986C18.0062 25.472 17.6907 26.3901 17.0601 27.0528C16.4292 27.7156 15.5859 28.0468 14.5302 28.0468C13.4615 28.0468 12.6115 27.7171 11.9806 27.0577C11.35 26.3984 11.0345 25.4902 11.0345 24.3333C11.0345 23.593 11.1439 22.9716 11.3629 22.4692C11.5265 22.099 11.7495 21.7667 12.0323 21.4727C12.3149 21.1785 12.6247 20.9604 12.9613 20.8182C13.4092 20.6266 13.9254 20.5308 14.5105 20.5308ZM14.5251 26.7926C15.1038 26.7926 15.5786 26.5819 15.9495 26.1605C16.3205 25.7391 16.5059 25.107 16.5059 24.264C16.5059 23.4312 16.3254 22.8097 15.9641 22.4C15.603 21.99 15.1234 21.785 14.5251 21.785C13.9271 21.785 13.4449 21.9925 13.0788 22.4074C12.7128 22.8222 12.5298 23.4477 12.5298 24.284C12.5298 25.107 12.7178 25.7308 13.0937 26.1556C13.4696 26.5802 13.9467 26.7926 14.5251 26.7926Z" fill="#31313A"/>
</svg>
