<svg width="18" height="18" viewBox="0 0 18 18" fill="none" xmlns="http://www.w3.org/2000/svg">
<path d="M10.0842 3.25047C10.683 3.25047 11.1684 2.76505 11.1684 2.16625C11.1684 1.56745 10.683 1.08203 10.0842 1.08203C9.48542 1.08203 9 1.56745 9 2.16625C9 2.76505 9.48542 3.25047 10.0842 3.25047Z" fill="#6A8CDF"/>
<path d="M12.2523 1.73502C12.7314 1.73502 13.1198 1.34662 13.1198 0.86751C13.1198 0.388398 12.7314 0 12.2523 0C11.7732 0 11.3848 0.388398 11.3848 0.86751C11.3848 1.34662 11.7732 1.73502 12.2523 1.73502Z" fill="#6A8CDF"/>
<path d="M15.8967 14.8002L11.3857 7.58739V5.4213H12.687V3.90332H5.31346V5.4213H6.61472V7.58739L2.10373 14.8002C1.93835 15.1068 1.84375 15.4574 1.84375 15.8307C1.84375 17.0284 2.81458 17.9995 4.01253 17.9995H13.9882C15.1858 17.9995 16.157 17.0287 16.157 15.8307C16.157 15.4574 16.0624 15.1068 15.8967 14.8002ZM5.557 12.1413L8.1327 8.02282V5.42096H9.86772V8.02282L12.4434 12.1413H5.557Z" fill="#6A8CDF"/>
</svg>
