<svg width="20" height="20" viewBox="0 0 20 20" fill="none" xmlns="http://www.w3.org/2000/svg">
<path d="M7.6123 17.3112V14.7631C7.6123 14.1126 8.14346 13.5853 8.79868 13.5853H11.1938C11.5085 13.5853 11.8102 13.7094 12.0327 13.9303C12.2552 14.1512 12.3802 14.4507 12.3802 14.7631V17.3112C12.3782 17.5816 12.485 17.8416 12.677 18.0336C12.8689 18.2255 13.13 18.3334 13.4024 18.3334H15.0365C15.7997 18.3354 16.5323 18.0358 17.0726 17.5008C17.613 16.9657 17.9166 16.2392 17.9166 15.4816V8.22246C17.9166 7.61047 17.6434 7.02995 17.1705 6.63731L11.6117 2.22997C10.6447 1.45722 9.25924 1.48217 8.32114 2.28923L2.88916 6.63731C2.39393 7.01838 2.09794 7.60061 2.08331 8.22246V15.4742C2.08331 17.0533 3.3728 18.3334 4.96346 18.3334H6.56022C7.126 18.3334 7.58581 17.8803 7.58991 17.3186L7.6123 17.3112Z" fill="#989898"/>
</svg>
