<svg width="26" height="26" viewBox="0 0 26 26" fill="none" xmlns="http://www.w3.org/2000/svg">
<path d="M17.5126 5.72975C16.1834 4.03325 14.8086 2.2815 13.7004 0.39975C13.5541 0.15275 13.2876 0 13 0C12.7124 0 12.4459 0.15275 12.3013 0.39975C11.193 2.27988 9.81825 4.03325 8.489 5.72813C5.79475 9.16337 3.25 12.4085 3.25 16.25C3.25 21.6271 7.62288 26 13 26C18.3771 26 22.75 21.6271 22.75 16.25C22.75 12.4101 20.2069 9.165 17.5126 5.72975ZM13 24.375C8.51988 24.375 4.875 20.7301 4.875 16.25C4.875 12.9691 7.25075 9.94013 9.76788 6.73075C10.8664 5.33 11.9941 3.89188 13 2.35138C14.0059 3.89188 15.1336 5.33162 16.2321 6.73238C18.7493 9.94013 21.125 12.9707 21.125 16.25C21.125 20.7301 17.4801 24.375 13 24.375Z" fill="white"/>
<path d="M10.5625 9.75C9.21862 9.75 8.125 10.8436 8.125 12.1875C8.125 13.5314 9.21862 14.625 10.5625 14.625C11.9064 14.625 13 13.5314 13 12.1875C13 10.8436 11.9064 9.75 10.5625 9.75ZM10.5625 13C10.114 13 9.75 12.636 9.75 12.1875C9.75 11.739 10.114 11.375 10.5625 11.375C11.011 11.375 11.375 11.739 11.375 12.1875C11.375 12.636 11.011 13 10.5625 13Z" fill="white"/>
<path d="M15.4375 17.875C14.0936 17.875 13 18.9686 13 20.3125C13 21.6564 14.0936 22.75 15.4375 22.75C16.7814 22.75 17.875 21.6564 17.875 20.3125C17.875 18.9686 16.7814 17.875 15.4375 17.875ZM15.4375 21.125C14.9906 21.125 14.625 20.7594 14.625 20.3125C14.625 19.8656 14.9906 19.5 15.4375 19.5C15.8844 19.5 16.25 19.8656 16.25 20.3125C16.25 20.7594 15.8844 21.125 15.4375 21.125Z" fill="white"/>
<path d="M17.6365 11.6139C17.3197 11.297 16.8045 11.297 16.4877 11.6139L8.36266 19.7389C8.04578 20.0558 8.04578 20.5709 8.36266 20.8878C8.52191 21.0454 8.72991 21.125 8.93791 21.125C9.14591 21.125 9.35391 21.0454 9.51153 20.8878L17.6365 12.7628C17.9534 12.4459 17.9534 11.9308 17.6365 11.6139Z" fill="white"/>
</svg>
