<svg width="26" height="26" viewBox="0 0 26 26" fill="none" xmlns="http://www.w3.org/2000/svg">
<g clip-path="url(#clip0_1638_59356)">
<path d="M11.3594 6.33559C8.92056 6.90423 6.95731 8.83834 6.35779 11.2629C5.75638 13.6953 6.44467 16.1746 8.19906 17.895C8.81961 18.5036 9.19016 19.4791 9.19016 20.5044V20.6681C9.19016 21.3433 9.48474 21.9508 9.95188 22.3695V23.715C9.95188 24.975 10.977 26.0001 12.237 26.0001H13.7605C15.0205 26.0001 16.0456 24.975 16.0456 23.715V22.3695C16.5128 21.9508 16.8073 21.3433 16.8073 20.6681V20.5014C16.8073 19.4917 17.1977 18.4977 17.8516 17.8425C19.143 16.5482 19.8542 14.8285 19.8542 13.0001C19.8542 8.62892 15.8035 5.29975 11.3594 6.33559ZM14.5222 23.715C14.5222 24.135 14.1805 24.4767 13.7605 24.4767H12.237C11.817 24.4767 11.4753 24.135 11.4753 23.715V22.9532H14.5222V23.715ZM16.7731 16.7664C15.8267 17.7148 15.2839 19.0761 15.2839 20.5014V20.6681C15.2839 21.0881 14.9422 21.4298 14.5222 21.4298H11.4753C11.0553 21.4298 10.7136 21.0881 10.7136 20.6681V20.5044C10.7136 19.0572 10.1858 17.7097 9.26567 16.8073C7.90017 15.4682 7.366 13.5323 7.83664 11.6286C8.30002 9.75443 9.81858 8.25913 11.7054 7.81926C15.1926 7.0061 18.3308 9.60935 18.3308 13.0001C18.3308 14.4222 17.7776 15.7597 16.7731 16.7664Z" fill="white"/>
<path d="M7.07592 5.99791L4.92142 3.84347C4.624 3.54599 4.14168 3.54599 3.8442 3.84347C3.54672 4.14095 3.54672 4.62321 3.8442 4.92069L5.9987 7.07514C6.29612 7.37261 6.77849 7.37261 7.07592 7.07514C7.3734 6.77766 7.3734 6.29539 7.07592 5.99791Z" fill="white"/>
<path d="M3.85938 12.2383H0.761719C0.341047 12.2383 0 12.5793 0 13C0 13.4207 0.341047 13.7617 0.761719 13.7617H3.85938C4.28005 13.7617 4.62109 13.4207 4.62109 13C4.62109 12.5793 4.28005 12.2383 3.85938 12.2383Z" fill="white"/>
<path d="M25.2383 12.2383H22.1406C21.72 12.2383 21.3789 12.5793 21.3789 13C21.3789 13.4207 21.72 13.7617 22.1406 13.7617H25.2383C25.659 13.7617 26 13.4207 26 13C26 12.5793 25.659 12.2383 25.2383 12.2383Z" fill="white"/>
<path d="M22.158 3.84347C21.8606 3.54599 21.3783 3.54599 21.0807 3.84347L18.9262 5.99791C18.6288 6.29534 18.6288 6.77766 18.9262 7.07514C19.2237 7.37261 19.706 7.37261 20.0035 7.07514L22.158 4.92069C22.4554 4.62327 22.4554 4.14095 22.158 3.84347Z" fill="white"/>
<path d="M13 0C12.5793 0 12.2383 0.341047 12.2383 0.761719V3.85938C12.2383 4.28005 12.5793 4.62109 13 4.62109C13.4207 4.62109 13.7617 4.28005 13.7617 3.85938V0.761719C13.7617 0.341047 13.4207 0 13 0Z" fill="white"/>
<path d="M12.9991 9.19141C12.6859 9.19141 12.367 9.22893 12.0516 9.30282C10.7381 9.60939 9.63856 10.6906 9.31554 11.9932C9.21429 12.4015 9.46317 12.8145 9.87145 12.9159C10.2798 13.0171 10.6929 12.7681 10.7941 12.3599C10.9801 11.6105 11.6395 10.9634 12.3985 10.7862C12.6007 10.7389 12.8028 10.7148 12.9991 10.7148C13.4197 10.7148 13.7608 10.3738 13.7608 9.95312C13.7608 9.53245 13.4197 9.19141 12.9991 9.19141Z" fill="white"/>
</g>
<defs>
<clipPath id="clip0_1638_59356">
<rect width="26" height="26" fill="white"/>
</clipPath>
</defs>
</svg>
