<svg width="167" height="48" viewBox="0 0 167 48" fill="none" xmlns="http://www.w3.org/2000/svg">
<circle cx="24" cy="24" r="24" fill="url(#paint0_linear_1638_58922)"/>
<path d="M67.1548 19.6378C67.098 19.0649 66.8542 18.6198 66.4233 18.3026C65.9924 17.9853 65.4077 17.8267 64.669 17.8267C64.1671 17.8267 63.7434 17.8977 63.3977 18.0398C63.0521 18.1771 62.7869 18.3688 62.6023 18.6151C62.4223 18.8613 62.3324 19.1406 62.3324 19.4531C62.3229 19.7135 62.3774 19.9408 62.4957 20.1349C62.6188 20.3291 62.7869 20.4972 63 20.6392C63.2131 20.7765 63.4593 20.8973 63.7386 21.0014C64.018 21.1009 64.3163 21.1861 64.6335 21.2571L65.9403 21.5696C66.5748 21.7116 67.1572 21.901 67.6875 22.1378C68.2178 22.3745 68.6771 22.6657 69.0653 23.0114C69.4536 23.357 69.7543 23.7642 69.9673 24.233C70.1851 24.7017 70.2964 25.2391 70.3011 25.8452C70.2964 26.7353 70.0691 27.5071 69.6193 28.1605C69.1742 28.8092 68.5303 29.3134 67.6875 29.6733C66.8494 30.0284 65.8385 30.206 64.6548 30.206C63.4806 30.206 62.4579 30.026 61.5866 29.6662C60.7202 29.3063 60.0431 28.7737 59.5554 28.0682C59.0724 27.358 58.8191 26.4796 58.7955 25.4332H61.7713C61.8045 25.9209 61.9441 26.3281 62.1903 26.6548C62.4413 26.9768 62.7751 27.2206 63.1918 27.3864C63.6132 27.5473 64.089 27.6278 64.6193 27.6278C65.1402 27.6278 65.5923 27.5521 65.9759 27.4006C66.3641 27.2491 66.6648 27.0384 66.8778 26.7685C67.0909 26.4986 67.1974 26.1884 67.1974 25.8381C67.1974 25.5114 67.1004 25.2367 66.9062 25.0142C66.7169 24.7917 66.4375 24.6023 66.0682 24.446C65.7036 24.2898 65.2562 24.1477 64.7259 24.0199L63.142 23.6222C61.9157 23.3239 60.9474 22.8575 60.2372 22.223C59.527 21.5885 59.1742 20.7339 59.179 19.6591C59.1742 18.7784 59.4086 18.009 59.8821 17.3509C60.3603 16.6927 61.0161 16.179 61.8494 15.8097C62.6828 15.4403 63.6297 15.2557 64.6903 15.2557C65.7699 15.2557 66.7121 15.4403 67.517 15.8097C68.3267 16.179 68.9564 16.6927 69.4062 17.3509C69.8561 18.009 70.0881 18.7713 70.1023 19.6378H67.1548ZM72.3129 34.0909V19.0909H75.2958V20.9233H75.4308C75.5633 20.6297 75.7551 20.3314 76.006 20.0284C76.2617 19.7206 76.5932 19.465 77.0004 19.2614C77.4123 19.053 77.9237 18.9489 78.5344 18.9489C79.3299 18.9489 80.0638 19.1572 80.7362 19.5739C81.4085 19.9858 81.9459 20.6084 82.3484 21.4418C82.7508 22.2704 82.9521 23.3097 82.9521 24.5597C82.9521 25.7765 82.7556 26.804 82.3626 27.642C81.9743 28.4754 81.444 29.1075 80.7717 29.5384C80.104 29.9645 79.3559 30.1776 78.5273 30.1776C77.9402 30.1776 77.4407 30.0805 77.0288 29.8864C76.6216 29.6922 76.2878 29.4484 76.0273 29.1548C75.7669 28.8565 75.5681 28.5559 75.4308 28.2528H75.3384V34.0909H72.3129ZM75.2745 24.5455C75.2745 25.1941 75.3645 25.7599 75.5444 26.2429C75.7243 26.7259 75.9847 27.1023 76.3256 27.3722C76.6665 27.6373 77.0808 27.7699 77.5685 27.7699C78.061 27.7699 78.4776 27.6349 78.8185 27.3651C79.1594 27.0904 79.4175 26.7116 79.5927 26.2287C79.7726 25.741 79.8626 25.1799 79.8626 24.5455C79.8626 23.9157 79.775 23.3617 79.5998 22.8835C79.4246 22.4053 79.1665 22.0312 78.8256 21.7614C78.4847 21.4915 78.0657 21.3565 77.5685 21.3565C77.0761 21.3565 76.6594 21.4867 76.3185 21.7472C75.9824 22.0076 75.7243 22.3769 75.5444 22.8551C75.3645 23.3333 75.2745 23.8968 75.2745 24.5455ZM88.0799 30.206C87.3839 30.206 86.7636 30.0852 86.2191 29.8438C85.6746 29.5975 85.2437 29.2353 84.9265 28.7571C84.614 28.2741 84.4577 27.6728 84.4577 26.9531C84.4577 26.3471 84.569 25.8381 84.7915 25.4261C85.0141 25.0142 85.3171 24.6828 85.7006 24.4318C86.0842 24.1809 86.5198 23.9915 87.0075 23.8636C87.4999 23.7358 88.016 23.6458 88.5558 23.5938C89.1902 23.5275 89.7016 23.4659 90.0898 23.4091C90.4781 23.3475 90.7598 23.2576 90.935 23.1392C91.1102 23.0208 91.1978 22.8456 91.1978 22.6136V22.571C91.1978 22.1212 91.0558 21.7732 90.7717 21.527C90.4923 21.2808 90.0946 21.1577 89.5785 21.1577C89.034 21.1577 88.6007 21.2784 88.2788 21.5199C87.9568 21.7566 87.7437 22.0549 87.6396 22.4148L84.8413 22.1875C84.9833 21.5246 85.2627 20.9517 85.6793 20.4688C86.096 19.9811 86.6334 19.607 87.2915 19.3466C87.9544 19.0814 88.7215 18.9489 89.5927 18.9489C90.1987 18.9489 90.7788 19.0199 91.3327 19.1619C91.8915 19.304 92.3862 19.5241 92.8171 19.8224C93.2527 20.1207 93.596 20.5043 93.8469 20.973C94.0979 21.437 94.2234 21.9934 94.2234 22.642V30H91.354V28.4872H91.2688C91.0936 28.8281 90.8593 29.1288 90.5657 29.3892C90.2721 29.6449 89.9194 29.8461 89.5075 29.9929C89.0955 30.1349 88.6197 30.206 88.0799 30.206ZM88.9464 28.1179C89.3915 28.1179 89.7844 28.0303 90.1254 27.8551C90.4663 27.6752 90.7338 27.4337 90.9279 27.1307C91.122 26.8277 91.2191 26.4844 91.2191 26.1009V24.9432C91.1244 25.0047 90.9942 25.0616 90.8285 25.1136C90.6675 25.161 90.4852 25.206 90.2816 25.2486C90.078 25.2865 89.8744 25.322 89.6708 25.3551C89.4672 25.3835 89.2826 25.4096 89.1168 25.4332C88.7617 25.4853 88.4516 25.5682 88.1864 25.6818C87.9213 25.7955 87.7153 25.9493 87.5685 26.1435C87.4218 26.3329 87.3484 26.5696 87.3484 26.8537C87.3484 27.2656 87.4975 27.5805 87.7958 27.7983C88.0988 28.0114 88.4824 28.1179 88.9464 28.1179ZM101.5 30.2131C100.382 30.2131 99.421 29.9763 98.6161 29.5028C97.8159 29.0246 97.2004 28.3617 96.7695 27.5142C96.3434 26.6667 96.1303 25.6913 96.1303 24.5881C96.1303 23.4706 96.3458 22.4905 96.7766 21.6477C97.2122 20.8002 97.8301 20.1397 98.6303 19.6662C99.4305 19.188 100.382 18.9489 101.485 18.9489C102.437 18.9489 103.27 19.1217 103.985 19.4673C104.7 19.813 105.266 20.2983 105.683 20.9233C106.1 21.5483 106.329 22.2822 106.372 23.125H103.517C103.436 22.5805 103.223 22.1425 102.877 21.8111C102.537 21.4749 102.089 21.3068 101.535 21.3068C101.066 21.3068 100.657 21.4347 100.306 21.6903C99.9608 21.9413 99.6909 22.3082 99.4968 22.7912C99.3027 23.2741 99.2056 23.8589 99.2056 24.5455C99.2056 25.2415 99.3003 25.8333 99.4897 26.321C99.6838 26.8087 99.9561 27.1804 100.306 27.4361C100.657 27.6918 101.066 27.8196 101.535 27.8196C101.881 27.8196 102.191 27.7486 102.466 27.6065C102.745 27.4645 102.975 27.2585 103.154 26.9886C103.339 26.714 103.46 26.3849 103.517 26.0014H106.372C106.324 26.8348 106.097 27.5687 105.69 28.2031C105.288 28.8329 104.731 29.3253 104.021 29.6804C103.311 30.0355 102.47 30.2131 101.5 30.2131ZM113.281 30.2131C112.158 30.2131 111.192 29.9858 110.383 29.5312C109.578 29.072 108.958 28.4233 108.522 27.5852C108.086 26.7424 107.869 25.7457 107.869 24.5952C107.869 23.473 108.086 22.4882 108.522 21.6406C108.958 20.7931 109.571 20.1326 110.362 19.6591C111.157 19.1856 112.09 18.9489 113.16 18.9489C113.879 18.9489 114.549 19.0649 115.17 19.2969C115.795 19.5241 116.339 19.8674 116.803 20.3267C117.272 20.786 117.637 21.3636 117.897 22.0597C118.157 22.7509 118.288 23.5606 118.288 24.4886V25.3196H109.076V23.4446H115.44C115.44 23.009 115.345 22.6231 115.156 22.2869C114.966 21.9508 114.703 21.688 114.367 21.4986C114.036 21.3045 113.65 21.2074 113.21 21.2074C112.75 21.2074 112.343 21.3139 111.988 21.527C111.638 21.7353 111.363 22.017 111.164 22.3722C110.965 22.7225 110.863 23.1132 110.859 23.544V25.3267C110.859 25.8665 110.958 26.3329 111.157 26.7259C111.361 27.1188 111.647 27.4219 112.016 27.6349C112.386 27.848 112.824 27.9545 113.33 27.9545C113.666 27.9545 113.974 27.9072 114.254 27.8125C114.533 27.7178 114.772 27.5758 114.971 27.3864C115.17 27.197 115.321 26.965 115.425 26.6903L118.224 26.875C118.082 27.5473 117.79 28.1345 117.35 28.6364C116.915 29.1335 116.351 29.5218 115.66 29.8011C114.973 30.0758 114.18 30.2131 113.281 30.2131ZM124.948 30V15.4545H130.686C131.785 15.4545 132.722 15.651 133.499 16.044C134.28 16.4323 134.874 16.9839 135.282 17.6989C135.694 18.4091 135.9 19.2448 135.9 20.206C135.9 21.1719 135.691 22.0028 135.275 22.6989C134.858 23.3902 134.254 23.9205 133.463 24.2898C132.677 24.6591 131.726 24.8438 130.608 24.8438H126.766V22.3722H130.111C130.698 22.3722 131.186 22.2917 131.574 22.1307C131.962 21.9697 132.251 21.7282 132.441 21.4062C132.635 21.0843 132.732 20.6842 132.732 20.206C132.732 19.723 132.635 19.3158 132.441 18.9844C132.251 18.6529 131.96 18.402 131.567 18.2315C131.179 18.0563 130.689 17.9688 130.097 17.9688H128.023V30H124.948ZM132.803 23.3807L136.418 30H133.023L129.486 23.3807H132.803ZM142.812 30.2131C141.69 30.2131 140.724 29.9858 139.914 29.5312C139.109 29.072 138.489 28.4233 138.053 27.5852C137.618 26.7424 137.4 25.7457 137.4 24.5952C137.4 23.473 137.618 22.4882 138.053 21.6406C138.489 20.7931 139.102 20.1326 139.893 19.6591C140.688 19.1856 141.621 18.9489 142.691 18.9489C143.411 18.9489 144.081 19.0649 144.701 19.2969C145.326 19.5241 145.871 19.8674 146.335 20.3267C146.803 20.786 147.168 21.3636 147.428 22.0597C147.689 22.7509 147.819 23.5606 147.819 24.4886V25.3196H138.607V23.4446H144.971C144.971 23.009 144.876 22.6231 144.687 22.2869C144.497 21.9508 144.235 21.688 143.898 21.4986C143.567 21.3045 143.181 21.2074 142.741 21.2074C142.281 21.2074 141.874 21.3139 141.519 21.527C141.169 21.7353 140.894 22.017 140.695 22.3722C140.496 22.7225 140.395 23.1132 140.39 23.544V25.3267C140.39 25.8665 140.489 26.3329 140.688 26.7259C140.892 27.1188 141.178 27.4219 141.548 27.6349C141.917 27.848 142.355 27.9545 142.862 27.9545C143.198 27.9545 143.505 27.9072 143.785 27.8125C144.064 27.7178 144.303 27.5758 144.502 27.3864C144.701 27.197 144.853 26.965 144.957 26.6903L147.755 26.875C147.613 27.5473 147.322 28.1345 146.881 28.6364C146.446 29.1335 145.882 29.5218 145.191 29.8011C144.504 30.0758 143.711 30.2131 142.812 30.2131ZM153.813 30.1776C152.985 30.1776 152.234 29.9645 151.562 29.5384C150.894 29.1075 150.364 28.4754 149.971 27.642C149.583 26.804 149.388 25.7765 149.388 24.5597C149.388 23.3097 149.59 22.2704 149.992 21.4418C150.395 20.6084 150.93 19.9858 151.597 19.5739C152.27 19.1572 153.006 18.9489 153.806 18.9489C154.417 18.9489 154.926 19.053 155.333 19.2614C155.745 19.465 156.076 19.7206 156.327 20.0284C156.583 20.3314 156.777 20.6297 156.91 20.9233H157.002V15.4545H160.021V30H157.038V28.2528H156.91C156.768 28.5559 156.567 28.8565 156.306 29.1548C156.05 29.4484 155.717 29.6922 155.305 29.8864C154.897 30.0805 154.4 30.1776 153.813 30.1776ZM154.772 27.7699C155.26 27.7699 155.672 27.6373 156.008 27.3722C156.349 27.1023 156.609 26.7259 156.789 26.2429C156.974 25.7599 157.066 25.1941 157.066 24.5455C157.066 23.8968 156.976 23.3333 156.796 22.8551C156.616 22.3769 156.356 22.0076 156.015 21.7472C155.674 21.4867 155.26 21.3565 154.772 21.3565C154.275 21.3565 153.856 21.4915 153.515 21.7614C153.174 22.0312 152.916 22.4053 152.741 22.8835C152.566 23.3617 152.478 23.9157 152.478 24.5455C152.478 25.1799 152.566 25.741 152.741 26.2287C152.921 26.7116 153.179 27.0904 153.515 27.3651C153.856 27.6349 154.275 27.7699 154.772 27.7699ZM162.508 30V19.0909H165.534V30H162.508ZM164.028 17.6847C163.578 17.6847 163.192 17.5355 162.87 17.2372C162.553 16.9342 162.395 16.572 162.395 16.1506C162.395 15.7339 162.553 15.3764 162.87 15.0781C163.192 14.7751 163.578 14.6236 164.028 14.6236C164.478 14.6236 164.861 14.7751 165.179 15.0781C165.501 15.3764 165.662 15.7339 165.662 16.1506C165.662 16.572 165.501 16.9342 165.179 17.2372C164.861 17.5355 164.478 17.6847 164.028 17.6847Z" fill="#31313A"/>
<defs>
<linearGradient id="paint0_linear_1638_58922" x1="1.0203e-06" y1="1.0203e-06" x2="57.6493" y2="19.5588" gradientUnits="userSpaceOnUse">
<stop stop-color="#7DB8E3"/>
<stop offset="1" stop-color="#5E57A5"/>
</linearGradient>
</defs>
</svg>
