<svg width="20" height="20" viewBox="0 0 20 20" fill="none" xmlns="http://www.w3.org/2000/svg">
<g opacity="0.7">
<path fill-rule="evenodd" clip-rule="evenodd" d="M6.36435 2.82949C4.21685 2.82949 2.82935 4.30199 2.82935 6.57366V13.4187C2.82935 14.0562 2.94768 14.6253 3.15018 15.1178C3.15893 15.1074 3.34972 14.8749 3.59858 14.5716C4.08481 13.9791 4.79272 13.1164 4.79768 13.112C5.37435 12.4537 6.45685 11.472 7.87768 12.0662C8.18903 12.1953 8.46578 12.3721 8.72054 12.5349C8.74535 12.5507 8.76995 12.5665 8.79435 12.582C9.27185 12.9012 9.55268 13.0512 9.84435 13.0262C9.96518 13.0095 10.0785 12.9737 10.186 12.907C10.5915 12.657 11.6429 11.1673 11.9577 10.7212C12.0039 10.6558 12.0342 10.6128 12.0443 10.5995C12.9527 9.41616 14.3527 9.09949 15.5193 9.79949C15.676 9.89283 16.7985 10.677 17.1702 10.992V6.57366C17.1702 4.30199 15.7827 2.82949 13.6277 2.82949H6.36435ZM13.6277 1.66699C16.4418 1.66699 18.3327 3.63533 18.3327 6.57366V13.4187C18.3327 13.4926 18.3249 13.5619 18.3172 13.6311C18.3117 13.6798 18.3063 13.7284 18.3035 13.7787C18.3017 13.809 18.3009 13.8394 18.3 13.8697C18.2988 13.9102 18.2977 13.9507 18.2943 13.9912C18.2927 14.007 18.2896 14.0222 18.2864 14.0374C18.2833 14.0526 18.2802 14.0678 18.2785 14.0837C18.251 14.3453 18.2085 14.5953 18.1493 14.8378C18.1354 14.8984 18.1192 14.9568 18.1029 15.0158L18.0993 15.0287C18.0327 15.2637 17.9543 15.4878 17.8602 15.702C17.8437 15.738 17.8263 15.7731 17.8089 15.8082C17.7973 15.8316 17.7857 15.855 17.7743 15.8787C17.6727 16.0828 17.5627 16.2787 17.4352 16.4603C17.4116 16.494 17.3865 16.5255 17.3613 16.557C17.3447 16.5779 17.3281 16.5988 17.3118 16.6203C17.1793 16.792 17.041 16.9562 16.8843 17.1053C16.8531 17.1351 16.8193 17.1623 16.7854 17.1895C16.7643 17.2065 16.7432 17.2235 16.7227 17.2412C16.5618 17.3795 16.3977 17.512 16.2168 17.6253C16.1774 17.6501 16.1355 17.6709 16.0937 17.6916C16.0667 17.705 16.0397 17.7184 16.0135 17.7328C15.8293 17.8345 15.6435 17.9337 15.441 18.0103C15.3923 18.0288 15.3404 18.0422 15.2884 18.0556C15.2515 18.0652 15.2145 18.0747 15.1785 18.0862C15.1605 18.0917 15.1425 18.0973 15.1245 18.1029C14.9436 18.1592 14.7633 18.2153 14.5685 18.2487C14.4557 18.2684 14.3359 18.276 14.2161 18.2836C14.1642 18.2869 14.1123 18.2902 14.061 18.2945C14.0058 18.2986 13.9517 18.3053 13.8975 18.3119C13.8094 18.3228 13.7211 18.3337 13.6277 18.3337H6.36435C6.05102 18.3337 5.75185 18.302 5.46268 18.2545L5.43185 18.2495C4.30435 18.0553 3.36852 17.5112 2.71268 16.6903C2.70813 16.6903 2.70634 16.6873 2.70396 16.6832C2.70242 16.6805 2.70063 16.6774 2.69768 16.6745C2.03852 15.8445 1.66602 14.7287 1.66602 13.4187V6.57366C1.66602 3.63533 3.55852 1.66699 6.36435 1.66699H13.6277ZM9.16652 7.09579C9.16652 8.22492 8.22175 9.16666 7.08722 9.16666C6.08996 9.16666 5.23967 8.43804 5.04911 7.49468C5.01761 7.35314 4.99985 7.20758 4.99985 7.05719C4.99985 5.92002 5.92362 4.99999 7.06542 4.99999C7.64681 4.99999 8.1733 5.24448 8.5504 5.63452C8.92911 6.0109 9.16652 6.52962 9.16652 7.09579Z" fill="#31313A"/>
</g>
</svg>
