<svg width="21" height="20" viewBox="0 0 21 20" fill="none" xmlns="http://www.w3.org/2000/svg">
<path d="M10.5 0C4.71032 0 2.82192e-05 4.24982 2.82192e-05 9.47368C2.82192e-05 11.2996 0.576128 13.0684 1.66883 14.5979C1.46198 16.8916 0.907577 18.5944 0.102578 19.4011C-0.00382177 19.5077 -0.0304217 19.6709 0.0367782 19.8056C0.0962781 19.926 0.218778 20 0.350028 20C0.366128 20 0.382228 19.9989 0.398678 19.9965C0.540428 19.9765 3.83322 19.5014 6.21497 18.1232C7.56737 18.6702 9.00797 18.9474 10.5 18.9474C16.2897 18.9474 21 14.6975 21 9.47368C21 4.24982 16.2897 0 10.5 0ZM5.60002 10.8772C4.82792 10.8772 4.20002 10.2477 4.20002 9.47368C4.20002 8.69965 4.82792 8.07018 5.60002 8.07018C6.37212 8.07018 7.00002 8.69965 7.00002 9.47368C7.00002 10.2477 6.37212 10.8772 5.60002 10.8772ZM10.5 10.8772C9.72792 10.8772 9.10002 10.2477 9.10002 9.47368C9.10002 8.69965 9.72792 8.07018 10.5 8.07018C11.2721 8.07018 11.9 8.69965 11.9 9.47368C11.9 10.2477 11.2721 10.8772 10.5 10.8772ZM15.4 10.8772C14.6279 10.8772 14 10.2477 14 9.47368C14 8.69965 14.6279 8.07018 15.4 8.07018C16.1721 8.07018 16.8 8.69965 16.8 9.47368C16.8 10.2477 16.1721 10.8772 15.4 10.8772Z" fill="white"/>
</svg>
