<svg width="23" height="25" viewBox="0 0 23 25" fill="none" xmlns="http://www.w3.org/2000/svg">
<g clip-path="url(#clip0_1768_50509)">
<path d="M18.7832 24.05C19.1366 24.0502 19.4721 23.8947 19.7003 23.6249C19.9285 23.3551 20.0261 22.9984 19.9672 22.65L19.967 22.6488C19.8599 22.0958 19.3914 21.6885 18.8332 21.6554V20.2156C19.4728 20.1894 19.9832 19.6626 19.9832 19.0166V17.15H20.6999C21.5744 17.15 22.2832 16.4411 22.2832 15.5667V14.0334C22.2832 13.1589 21.5744 12.45 20.6999 12.45H19.9832V11.7834H20.6999C21.5744 11.7834 22.2832 11.0745 22.2832 10.2V8.66673C22.2832 7.79229 21.5744 7.08341 20.6999 7.08341H19.9832V6.41673H20.6999C21.5744 6.41673 22.2832 5.70784 22.2832 4.83341V3.3C22.2832 2.42556 21.5744 1.71668 20.6999 1.71668H19.8975C19.7198 1.25743 19.2783 0.95206 18.7834 0.95H18.7832L3.83324 0.95L3.83318 0.95C2.11273 0.951917 0.718519 2.34618 0.716602 4.06663V4.06668L0.716602 20.9334L0.716602 20.9334C0.718519 22.6538 2.11273 24.0481 3.83318 24.05H3.83324H18.7832ZM18.7832 24.05L18.7832 24M18.7832 24.05H18.7832V24M18.7832 24H3.83324L18.7832 21.7034C19.3393 21.7144 19.8121 22.1123 19.9179 22.6583C19.9743 22.9922 19.8808 23.334 19.6621 23.5926C19.4434 23.8512 19.1219 24.0002 18.7832 24ZM2.28042 20.621L2.28055 20.6204C2.44191 19.8697 3.11126 19.3377 3.87893 19.35H18.7832C18.9673 19.35 19.1166 19.2008 19.1166 19.0167V2.15C19.1166 1.96594 18.9673 1.81668 18.7832 1.81668L3.83329 1.81668L3.83324 1.81668M2.28042 20.621L1.53324 4.06668C1.5345 2.79696 2.56352 1.76794 3.83324 1.76668V1.81668M2.28042 20.621C2.18676 21.0865 2.30695 21.5694 2.60781 21.9367C2.90868 22.304 3.35849 22.5169 3.8333 22.5167H18.7422V22.5167L18.7441 22.5166C18.9167 22.5103 19.0701 22.6257 19.1119 22.7932C19.1286 22.8899 19.1019 22.989 19.0388 23.0641C18.9755 23.1397 18.8819 23.1834 18.7833 23.1833H3.83329M2.28042 20.621L3.83329 23.1833M3.83324 1.81668C2.59114 1.81794 1.5845 2.82458 1.58324 4.06668C1.58324 4.0667 1.58324 4.06671 1.58324 4.06673M3.83324 1.81668L1.58324 4.06673M1.58324 4.06673V20.9333L1.58324 20.9333M1.58324 4.06673L3.83324 23.2333C2.56352 23.2321 1.5345 22.203 1.53324 20.9333H1.58324M1.58324 20.9333C1.5845 22.1754 2.59116 23.1821 3.83329 23.1833M1.58324 20.9333L3.83329 23.1833M3.87732 20.2166H3.87843H17.9665V21.65H3.83334C3.61767 21.6496 3.41364 21.5523 3.27748 21.385C3.14156 21.218 3.08767 20.9989 3.13066 20.7879C3.21511 20.4462 3.52534 20.2088 3.87732 20.2166ZM20.6999 13.3167C21.0957 13.3167 21.4166 13.6375 21.4166 14.0334V15.5667C21.4166 15.9625 21.0957 16.2834 20.6999 16.2834H19.9832V13.3167H20.6999ZM20.6999 7.95C21.0957 7.95 21.4166 8.27086 21.4166 8.66668V10.2C21.4166 10.5958 21.0957 10.9167 20.6999 10.9167H19.9832V7.95H20.6999ZM21.4166 3.3V4.83332C21.4166 5.22914 21.0957 5.55 20.6999 5.55H19.9832V2.58332H20.6999C21.0957 2.58332 21.4166 2.90418 21.4166 3.3Z" fill="white" stroke="white" stroke-width="0.1"/>
<path d="M3.83351 18.6832C4.07284 18.6832 4.26683 18.4892 4.26683 18.2498V2.91652C4.26683 2.67719 4.0728 2.4832 3.83351 2.4832C3.59423 2.4832 3.4002 2.67719 3.4002 2.91652V18.2498C3.4002 18.4892 3.59423 18.6832 3.83351 18.6832Z" fill="white" stroke="white" stroke-width="0.1"/>
</g>
<defs>
<clipPath id="clip0_1768_50509">
<rect width="23" height="25" fill="white"/>
</clipPath>
</defs>
</svg>
