<svg width="27" height="27" viewBox="0 0 27 27" fill="none" xmlns="http://www.w3.org/2000/svg">
<path d="M23.7602 2.51968C23.575 2.33466 23.2749 2.33451 23.0897 2.51968L18.1741 7.43511C17.9889 7.62028 17.9889 7.92039 18.174 8.10561C18.2666 8.19816 18.3879 8.24442 18.5093 8.24442C18.6306 8.24442 18.752 8.19816 18.8446 8.10561L23.7602 3.19017C23.9453 3.00495 23.9453 2.70479 23.7602 2.51968Z" fill="white"/>
<path d="M25.0969 3.83509C24.9117 3.65002 24.6116 3.65002 24.4265 3.83509L19.5109 8.75063C19.3258 8.93585 19.3258 9.23595 19.5109 9.42112C19.6035 9.51368 19.7249 9.55993 19.8461 9.55993C19.9674 9.55993 20.0888 9.51368 20.1814 9.42112L25.0969 4.50553C25.2821 4.32036 25.2821 4.0202 25.0969 3.83509Z" fill="white"/>
<path d="M20.4602 12.136L26.5623 6.03392C26.7474 5.8487 26.7474 5.5486 26.5623 5.36343C26.377 5.17841 26.0769 5.17826 25.8918 5.36343L19.7898 11.4655C19.0381 12.2172 17.8886 12.4144 16.9296 11.9564C16.7388 11.8653 16.511 11.9114 16.3706 12.0695L14.2973 14.4055C14.2965 14.4064 14.2955 14.4072 14.2947 14.4081C14.2939 14.409 14.2933 14.41 14.2924 14.4109L5.33111 24.5071C5.32884 24.5097 5.32657 24.5123 5.32435 24.5149C5.29481 24.5496 5.26691 24.5801 5.23865 24.6084C4.64695 25.2001 3.68424 25.2 3.0928 24.6084C2.8062 24.3219 2.64836 23.9408 2.64836 23.5355C2.64836 23.1302 2.8062 22.7491 3.09331 22.462C3.12085 22.4343 3.15127 22.4065 3.18628 22.3767C3.18896 22.3745 3.19154 22.3722 3.19412 22.37L8.7965 17.3974C8.99234 17.2236 9.01013 16.9239 8.83636 16.7281C8.66253 16.5322 8.36284 16.5143 8.1671 16.6883L2.56844 21.6575C2.51491 21.7032 2.46701 21.7474 2.42236 21.7921C1.95668 22.2578 1.7002 22.8769 1.7002 23.5355C1.7002 24.194 1.95663 24.8132 2.4223 25.2789C2.90304 25.7595 3.53434 25.9998 4.1658 25.9998C4.797 25.9998 5.42846 25.7595 5.90884 25.2791C5.95437 25.2337 5.99846 25.1857 6.04373 25.1327L12.8725 17.439L19.7014 25.1328C19.7466 25.1859 19.7907 25.2338 19.8359 25.279C20.3166 25.7596 20.9479 25.9999 21.5793 25.9999C22.2107 25.9999 22.8421 25.7595 23.3228 25.2789C24.2839 24.3176 24.2839 22.7535 23.323 21.7925C23.2777 21.747 23.2297 21.7029 23.1767 21.6576L15.3187 14.683L16.8561 12.9509C18.1018 13.3922 19.5112 13.0848 20.4602 12.136ZM22.5509 22.37C22.5535 22.3723 22.5561 22.3745 22.5587 22.3768C22.5934 22.4063 22.6239 22.4342 22.6522 22.4625C23.2438 23.0541 23.2438 24.0168 22.6523 24.6083C22.0606 25.1999 21.0979 25.1999 20.5061 24.6081C20.4781 24.5801 20.4501 24.5495 20.4205 24.5148C20.4183 24.5122 20.416 24.5096 20.4138 24.507L13.5063 16.7248L14.6892 15.3921L22.5509 22.37Z" fill="white"/>
<path d="M22.3374 1.1388C22.1522 0.953734 21.852 0.953734 21.6669 1.1388L15.5649 7.24089C14.6159 8.18988 14.3085 9.59919 14.7499 10.8451L12.8721 12.5118L11.0675 10.91C12.0008 9.07364 11.6601 6.84405 10.1795 5.36337C8.70893 3.89286 7.00566 2.85801 5.38339 2.44957C3.68985 2.02328 2.2379 2.30787 1.29458 3.25114C0.351261 4.19441 0.0666248 5.64656 0.493011 7.33999C0.901505 8.96216 1.9363 10.6654 3.40692 12.1359C4.88754 13.6166 7.11709 13.9573 8.9535 13.024C8.9535 13.024 10.7183 15.0122 10.7407 15.0375C10.8344 15.143 10.9646 15.1968 11.0954 15.1968C11.2074 15.1968 11.3197 15.1574 11.41 15.0773L15.6314 11.3304C15.7894 11.1901 15.8355 10.9622 15.7444 10.7715C15.2863 9.81236 15.4836 8.66298 16.2354 7.91133L22.3374 1.80929C22.5225 1.62407 22.5225 1.32397 22.3374 1.1388ZM11.1351 14.0536L9.40933 12.1093C9.2565 11.9371 9.00187 11.8995 8.80593 12.0205C7.28591 12.9578 5.34141 12.7297 4.07726 11.4655C2.72606 10.1144 1.7797 8.56707 1.41241 7.10847C1.07079 5.75145 1.26705 4.61961 1.96507 3.92163C2.663 3.22355 3.79484 3.0274 5.15181 3.36906C6.61041 3.73631 8.15781 4.68262 9.5089 6.03381C10.7731 7.29792 11.0012 9.24241 10.0638 10.7624C9.94298 10.9584 9.98046 11.2129 10.1526 11.3658L12.1579 13.1456L11.1351 14.0536Z" fill="white"/>
</svg>
