<svg width="26" height="26" viewBox="0 0 26 26" fill="none" xmlns="http://www.w3.org/2000/svg">
<path d="M17.9255 17.4747C17.7252 17.2784 17.4037 17.2817 17.2073 17.482L17.1929 17.4967C16.9967 17.697 17 18.0185 17.2003 18.2149C17.2991 18.3117 17.4274 18.3599 17.5557 18.3599C17.6873 18.3599 17.819 18.309 17.9184 18.2075L17.9329 18.1928C18.1291 17.9925 18.1258 17.671 17.9255 17.4747Z" fill="white"/>
<path d="M23.3884 12.1507H22.0389V10.8013C22.0389 10.5208 21.8116 10.2935 21.5311 10.2935C21.2506 10.2935 21.0233 10.5208 21.0233 10.8013V12.1507H19.6738C19.3934 12.1507 19.166 12.3781 19.166 12.6585C19.166 12.939 19.3934 13.1664 19.6738 13.1664H21.0233V14.5158C21.0233 14.7963 21.2506 15.0236 21.5311 15.0236C21.8116 15.0236 22.0389 14.7963 22.0389 14.5158V13.1664H23.3884C23.6688 13.1664 23.8962 12.939 23.8962 12.6585C23.8962 12.3781 23.6688 12.1507 23.3884 12.1507Z" fill="white"/>
<path d="M23.1915 8.51003C22.7172 5.00459 19.7867 2.38184 16.3084 2.38184C14.5525 2.38184 12.91 3.03636 11.6289 4.23607C10.3478 3.03636 8.70529 2.38184 6.94948 2.38184C3.11752 2.38184 0 5.5736 0 9.49681C0 10.2719 0.226129 11.1408 0.676001 12.0998H0.507814C0.227348 12.0998 0 12.3272 0 12.6076C0 12.8881 0.227348 13.1154 0.507814 13.1154H1.21682C2.16527 14.7211 3.66514 16.5471 5.71031 18.5807C8.48196 21.3366 11.2924 23.4928 11.3205 23.5142C11.4115 23.5839 11.5202 23.6186 11.6289 23.6186C11.7377 23.6186 11.8463 23.5839 11.9374 23.5142C11.9588 23.4978 14.1083 21.8496 16.4903 19.6037C16.6944 19.4113 16.7039 19.0899 16.5115 18.8859C16.3191 18.6818 15.9977 18.6723 15.7936 18.8648C13.977 20.5776 12.2998 21.9356 11.629 22.4662C10.8318 21.8355 8.61257 20.0351 6.41917 17.8533C4.66315 16.1065 3.31887 14.5146 2.41003 13.1154H6.95628C7.18282 13.1154 7.38193 12.9654 7.44439 12.7477L8.33165 9.65499L10.7887 17.527C10.8549 17.7391 11.0512 17.8836 11.2734 17.8836C11.4956 17.8836 11.6919 17.7391 11.7581 17.527L13.1188 13.1663H15.3859C15.6664 13.1663 15.8937 12.9389 15.8937 12.6585C15.8937 12.378 15.6664 12.1506 15.3859 12.1506H12.7453C12.5231 12.1506 12.3267 12.2951 12.2605 12.5072L11.2733 15.6711L8.79584 7.73368C8.72901 7.51954 8.53005 7.3741 8.30519 7.3772C8.08089 7.37979 7.88482 7.52929 7.82292 7.74496L6.57354 12.0999H1.80903C1.28411 11.1088 1.01563 10.2353 1.01563 9.49681C1.01563 6.13361 3.67753 3.39746 6.94948 3.39746C8.59398 3.39746 10.1233 4.07346 11.2557 5.30085C11.3519 5.40505 11.4871 5.46431 11.6289 5.46431C11.7707 5.46431 11.906 5.40505 12.0022 5.30085C13.1345 4.07346 14.6639 3.39746 16.3084 3.39746C19.1373 3.39746 21.5423 5.43755 22.114 8.22804C21.9232 8.20311 21.7287 8.19005 21.5312 8.19005C19.0672 8.19005 17.0625 10.1947 17.0625 12.6588C17.0625 15.1229 19.0672 17.1276 21.5312 17.1276C23.9953 17.1276 26 15.1229 26 12.6588C26.0001 10.7811 24.8359 9.17044 23.1915 8.51003ZM21.5313 16.1119C19.6272 16.1119 18.0782 14.5629 18.0782 12.6588C18.0782 10.7548 19.6272 9.20568 21.5313 9.20568C23.4353 9.20568 24.9844 10.7548 24.9844 12.6588C24.9844 14.5629 23.4353 16.1119 21.5313 16.1119Z" fill="white"/>
</svg>
