<svg width="26" height="26" viewBox="0 0 26 26" fill="none" xmlns="http://www.w3.org/2000/svg">
<g clip-path="url(#clip0_1768_50522)">
<path d="M24.9349 5.68546H23.7153V4.67199C23.7153 3.86852 23.0616 3.21484 22.2582 3.21484H21.0959C20.2924 3.21484 19.6388 3.86852 19.6388 4.67199V8.84401H17.6909V7.72392C17.6909 6.911 17.0296 6.24972 16.2167 6.24972C15.8973 6.24972 15.6017 6.35218 15.3601 6.52548C15.1226 6.02917 14.6155 5.68546 14.0295 5.68546C13.4756 5.68546 12.9921 5.99259 12.7403 6.4455C12.4914 6.25363 12.1802 6.13889 11.8423 6.13889C11.3295 6.13889 10.8775 6.40232 10.6134 6.80068C10.3554 6.57942 10.0207 6.44535 9.65508 6.44535C8.84217 6.44535 8.18088 7.10664 8.18088 7.91955V8.84411H6.3614V7.7697C6.3614 7.55945 6.19099 7.38909 5.98079 7.38909C5.7706 7.38909 5.60019 7.55945 5.60019 7.7697V16.6115C5.60019 16.9952 5.28799 17.3074 4.9043 17.3074H3.74178C3.35803 17.3074 3.04589 16.9952 3.04589 16.6115V4.67199C3.04589 4.28825 3.35808 3.97605 3.74178 3.97605H4.90414C5.28789 3.97605 5.60004 4.28825 5.60004 4.67199V6.14762C5.60004 6.35786 5.77045 6.52822 5.98064 6.52822C6.19084 6.52822 6.36124 6.35786 6.36124 6.14762V4.67199C6.36124 3.86852 5.70757 3.21484 4.90414 3.21484H3.74178C2.93831 3.21484 2.28468 3.86852 2.28468 4.67199V5.68546H1.06508C0.477784 5.68546 0 6.16325 0 6.75049V14.5329C0 15.1202 0.477784 15.5979 1.06508 15.5979H2.28468V16.6114C2.28468 17.4148 2.93836 18.0685 3.74178 18.0685H4.90414C5.70762 18.0685 6.36124 17.4148 6.36124 16.6114V12.4394H7.66555V13.1344C7.66555 13.4915 7.79048 13.8402 8.01743 14.1161L9.19943 15.5531V22.4043C9.19943 22.6146 9.36983 22.7849 9.58003 22.7849C9.79022 22.7849 9.96063 22.6146 9.96063 22.4043V15.4167C9.96063 15.3285 9.92998 15.2431 9.87396 15.1749L8.60528 13.6325C8.49013 13.4925 8.4267 13.3156 8.4267 13.1344V12.4394L15.6246 12.4834C15.8348 12.4834 16.0052 12.313 16.0052 12.1028C16.0052 11.8925 15.8348 11.7222 15.6246 11.7222H13.8928C13.5356 11.7222 13.2449 11.4315 13.2449 11.0743C13.2449 10.717 13.5356 10.4264 13.8928 10.4264H17.1653C17.3902 10.4264 17.5731 10.6092 17.5731 10.8341V13.1343C17.5731 13.3155 17.5097 13.4925 17.3946 13.6324L16.1259 15.1749C16.0699 15.243 16.0392 15.3284 16.0392 15.4167V16.4205C16.0392 16.6307 16.2096 16.8011 16.4198 16.8011C16.63 16.8011 16.8004 16.6307 16.8004 16.4205V15.5531L17.9824 14.116C18.2093 13.8401 18.3343 13.4915 18.3343 13.1343V12.4393H19.6386V16.6114C19.6386 17.4148 20.2923 18.0685 21.0957 18.0685H22.2581C23.0615 18.0685 23.7152 17.4148 23.7152 16.6114V15.5979H24.9348C25.5221 15.5979 25.9998 15.1201 25.9998 14.5328V6.75049C26 6.16325 25.5222 5.68546 24.9349 5.68546ZM1.06508 14.8367C0.897512 14.8367 0.761206 14.7004 0.761206 14.5329V6.75049C0.761206 6.58293 0.897512 6.44667 1.06508 6.44667H2.28468V14.8367H1.06508ZM16.2167 7.01093C16.6099 7.01093 16.9297 7.33078 16.9297 7.72392V9.14093C16.9297 9.34189 16.8444 9.53097 16.6985 9.6652H15.7348C15.5889 9.53097 15.5036 9.34189 15.5036 9.14093V7.72392C15.5036 7.33078 15.8235 7.01093 16.2167 7.01093ZM13.3164 7.15967C13.3164 6.76653 13.6363 6.44667 14.0294 6.44667C14.4226 6.44667 14.7424 6.76653 14.7424 7.15967V9.14093C14.7424 9.34189 14.6572 9.53097 14.5113 9.6652H13.8929C13.7878 9.6652 13.6855 9.67713 13.587 9.69905C13.4175 9.56528 13.3164 9.36168 13.3164 9.14093L13.3164 7.15967ZM11.1292 7.61304C11.1292 7.2199 11.449 6.90004 11.8422 6.90004C12.2353 6.90004 12.5552 7.2199 12.5552 7.61304V9.14088C12.5552 9.53407 12.2354 9.85393 11.8422 9.85393C11.449 9.85393 11.1292 9.53407 11.1292 9.14088V7.61304ZM8.94193 7.9195C8.94193 7.52636 9.26179 7.2065 9.65493 7.2065C10.0481 7.2065 10.3679 7.52636 10.3679 7.9195V9.14093C10.3679 9.53412 10.0481 9.85398 9.65493 9.85398C9.26179 9.85398 8.94193 9.53412 8.94193 9.14093V7.9195ZM6.3613 9.60522H8.25609C8.45111 10.1912 9.0043 10.6151 9.65498 10.6151C10.0885 10.6151 10.4788 10.427 10.7488 10.1282C11.0188 10.4269 11.4088 10.6151 11.8422 10.6151C12.1562 10.6151 12.4468 10.5155 12.6862 10.3475C12.5578 10.5599 12.4838 10.8086 12.4838 11.0743C12.4838 11.2903 12.5328 11.495 12.62 11.6781H6.3613V9.60522ZM18.3345 11.6782V10.8342C18.3345 10.3299 18.0135 9.8993 17.5652 9.73564C17.584 9.69306 17.6007 9.64952 17.6154 9.60522H19.6388V11.6782H18.3345ZM25.2388 14.5329C25.2388 14.7004 25.1025 14.8367 24.9349 14.8367H23.7153V13.7368C23.7153 13.5266 23.5449 13.3562 23.3347 13.3562C23.1245 13.3562 22.9541 13.5266 22.9541 13.7368V16.6114C22.9541 16.9952 22.6419 17.3073 22.2582 17.3073H21.0959C20.7121 17.3073 20.4 16.9952 20.4 16.6114V4.67199C20.4 4.28825 20.7122 3.97605 21.0959 3.97605H22.2582C22.642 3.97605 22.9541 4.28825 22.9541 4.67199V12.1148C22.9541 12.3251 23.1245 12.4954 23.3347 12.4954C23.5449 12.4954 23.7153 12.3251 23.7153 12.1148V6.44667H24.9349C25.1025 6.44667 25.2388 6.58298 25.2388 6.75049V14.5329Z" fill="white"/>
<path d="M16.4197 17.6621C16.2095 17.6621 16.0391 17.8325 16.0391 18.0427V22.4045C16.0391 22.6147 16.2095 22.7851 16.4197 22.7851C16.6299 22.7851 16.8003 22.6147 16.8003 22.4045V18.0427C16.8003 17.8325 16.6299 17.6621 16.4197 17.6621Z" fill="white"/>
</g>
<defs>
<clipPath id="clip0_1768_50522">
<rect width="26" height="26" fill="white"/>
</clipPath>
</defs>
</svg>
