<svg width="26" height="26" viewBox="0 0 26 26" fill="none" xmlns="http://www.w3.org/2000/svg">
<mask id="mask0_1768_50484" style="mask-type:luminance" maskUnits="userSpaceOnUse" x="-1" y="0" width="27" height="27">
<path d="M-0.00195312 0.000490189H25.998V26.0005H-0.00195312V0.000490189Z" fill="white"/>
</mask>
<g mask="url(#mask0_1768_50484)">
<path d="M12.998 0.508301L15.6387 5.08064C15.8971 5.52803 16.0449 6.04803 16.0449 6.60205C16.0449 8.28494 14.6809 9.64893 12.998 9.64893C11.3152 9.64893 9.95117 8.28494 9.95117 6.60205C9.95117 6.04803 10.0989 5.52803 10.3574 5.08064L12.998 0.508301Z" stroke="white" stroke-width="1.02817" stroke-miterlimit="10" stroke-linecap="round" stroke-linejoin="round"/>
<path d="M20.9199 5.68799L24.8804 12.5465C25.2683 13.2178 25.4902 13.9973 25.4902 14.8286C25.4902 17.3529 23.4443 19.3989 20.9199 19.3989C18.3956 19.3989 16.3496 17.3529 16.3496 14.8286C16.3496 13.9973 16.5715 13.2178 16.9595 12.5465L20.9199 5.68799Z" stroke="white" stroke-width="1.02817" stroke-miterlimit="10" stroke-linecap="round" stroke-linejoin="round"/>
<path d="M20.9199 16.3521C21.7614 16.3521 22.4434 15.6701 22.4434 14.8286V14.821C22.4434 14.5579 22.3743 14.2995 22.2423 14.0715" stroke="white" stroke-width="1.02817" stroke-miterlimit="10" stroke-linecap="round" stroke-linejoin="round"/>
<path d="M6.59961 22.4458C8.2825 22.4458 9.64648 21.0818 9.64648 19.3989V19.3908C9.64648 18.8601 9.50684 18.3391 9.24176 17.879" stroke="white" stroke-width="1.02817" stroke-miterlimit="10" stroke-linecap="round" stroke-linejoin="round"/>
<path d="M7.10742 25.4927C7.10742 25.7731 6.88002 26.0005 6.59961 26.0005C6.3192 26.0005 6.0918 25.7731 6.0918 25.4927C6.0918 25.2123 6.3192 24.9849 6.59961 24.9849C6.88002 24.9849 7.10742 25.2123 7.10742 25.4927Z" fill="white"/>
<path d="M4.35442 25.0659C2.10009 24.1719 0.505859 21.9715 0.505859 19.3991C0.505859 18.2906 0.801914 17.2516 1.31887 16.3563L6.59961 7.21164L11.8804 16.3563C12.3973 17.2516 12.6934 18.2906 12.6934 19.3991C12.6934 21.9716 11.099 24.1719 8.84475 25.0659" stroke="white" stroke-width="1.02817" stroke-miterlimit="10" stroke-linecap="round" stroke-linejoin="round"/>
</g>
</svg>
