<svg width="26" height="26" viewBox="0 0 26 26" fill="none" xmlns="http://www.w3.org/2000/svg">
<path fill-rule="evenodd" clip-rule="evenodd" d="M17.8747 2.70817H13.5413V1.08317C13.5413 0.784171 13.2987 0.541504 12.9997 0.541504C12.7007 0.541504 12.458 0.784171 12.458 1.08317V2.70817H8.12467V1.08317C8.12467 0.784171 7.88201 0.541504 7.58301 0.541504C7.28401 0.541504 7.04134 0.784171 7.04134 1.08317V2.70817H5.41634C3.9208 2.70817 2.70801 3.92096 2.70801 5.4165V22.7498C2.70801 24.2454 3.9208 25.4582 5.41634 25.4582H20.583C22.0786 25.4582 23.2913 24.2454 23.2913 22.7498C23.2913 18.5985 23.2913 9.56784 23.2913 5.4165C23.2913 3.92096 22.0786 2.70817 20.583 2.70817H18.958V1.08317C18.958 0.784171 18.7153 0.541504 18.4163 0.541504C18.1173 0.541504 17.8747 0.784171 17.8747 1.08317V2.70817ZM18.958 3.7915V5.4165C18.958 5.7155 18.7153 5.95817 18.4163 5.95817C18.1173 5.95817 17.8747 5.7155 17.8747 5.4165V3.7915H13.5413V5.4165C13.5413 5.7155 13.2987 5.95817 12.9997 5.95817C12.7007 5.95817 12.458 5.7155 12.458 5.4165V3.7915H8.12467V5.4165C8.12467 5.7155 7.88201 5.95817 7.58301 5.95817C7.28401 5.95817 7.04134 5.7155 7.04134 5.4165V3.7915H5.41634C4.5188 3.7915 3.79134 4.51896 3.79134 5.4165V22.7498C3.79134 23.6474 4.5188 24.3748 5.41634 24.3748H20.583C21.4806 24.3748 22.208 23.6474 22.208 22.7498V5.4165C22.208 4.51896 21.4806 3.7915 20.583 3.7915H18.958Z" fill="white"/>
<path fill-rule="evenodd" clip-rule="evenodd" d="M6.11645 10.1327L7.19978 11.216C7.41103 11.4278 7.75445 11.4278 7.9657 11.216L10.1324 9.04935C10.3436 8.8381 10.3436 8.49469 10.1324 8.28344C9.92111 8.07219 9.5777 8.07219 9.36645 8.28344L7.58274 10.0671L6.88236 9.36677C6.67111 9.15552 6.3277 9.15552 6.11645 9.36677C5.9052 9.57802 5.9052 9.92144 6.11645 10.1327Z" fill="white"/>
<path fill-rule="evenodd" clip-rule="evenodd" d="M6.11645 15.5497L7.19978 16.633C7.41103 16.8448 7.75445 16.8448 7.9657 16.633L10.1324 14.4663C10.3436 14.2551 10.3436 13.9117 10.1324 13.7004C9.92111 13.4892 9.5777 13.4892 9.36645 13.7004L7.58274 15.4841L6.88236 14.7838C6.67111 14.5725 6.3277 14.5725 6.11645 14.7838C5.9052 14.995 5.9052 15.3384 6.11645 15.5497Z" fill="white"/>
<path fill-rule="evenodd" clip-rule="evenodd" d="M6.11645 20.9662L7.19978 22.0495C7.41103 22.2613 7.75445 22.2613 7.9657 22.0495L10.1324 19.8829C10.3436 19.6716 10.3436 19.3282 10.1324 19.1169C9.92111 18.9057 9.5777 18.9057 9.36645 19.1169L7.58274 20.9006L6.88236 20.2003C6.67111 19.989 6.3277 19.989 6.11645 20.2003C5.9052 20.4115 5.9052 20.7549 6.11645 20.9662Z" fill="white"/>
<path fill-rule="evenodd" clip-rule="evenodd" d="M11.9167 10.2913H19.5C19.799 10.2913 20.0417 10.0487 20.0417 9.74967C20.0417 9.45067 19.799 9.20801 19.5 9.20801H11.9167C11.6177 9.20801 11.375 9.45067 11.375 9.74967C11.375 10.0487 11.6177 10.2913 11.9167 10.2913Z" fill="white"/>
<path fill-rule="evenodd" clip-rule="evenodd" d="M11.9167 15.7083H19.5C19.799 15.7083 20.0417 15.4657 20.0417 15.1667C20.0417 14.8677 19.799 14.625 19.5 14.625H11.9167C11.6177 14.625 11.375 14.8677 11.375 15.1667C11.375 15.4657 11.6177 15.7083 11.9167 15.7083Z" fill="white"/>
<path fill-rule="evenodd" clip-rule="evenodd" d="M11.9167 21.1248H19.5C19.799 21.1248 20.0417 20.8822 20.0417 20.5832C20.0417 20.2842 19.799 20.0415 19.5 20.0415H11.9167C11.6177 20.0415 11.375 20.2842 11.375 20.5832C11.375 20.8822 11.6177 21.1248 11.9167 21.1248Z" fill="white"/>
</svg>
