<svg width="20" height="20" viewBox="0 0 20 20" fill="none" xmlns="http://www.w3.org/2000/svg">
<path d="M17.6044 12.0722C17.4408 12.0313 17.2773 12.0722 17.1342 12.1744C16.6026 12.6242 15.9893 12.9922 15.3147 13.2375C14.6809 13.4828 13.9859 13.6055 13.2499 13.6055C11.5939 13.6055 10.0811 12.9309 8.9976 11.8473C7.91408 10.7638 7.23944 9.25099 7.23944 7.59505C7.23944 6.89997 7.3621 6.22533 7.56654 5.61202C7.79142 4.95782 8.11852 4.36495 8.54784 3.85386C8.73183 3.62898 8.69094 3.30188 8.46606 3.11789C8.32296 3.01567 8.15941 2.97478 7.99586 3.01567C6.25815 3.48587 4.74531 4.5285 3.6618 5.91867C2.61917 7.2884 2.00586 8.98522 2.00586 10.8252C2.00586 13.0535 2.90538 15.0774 4.37733 16.5494C5.84927 18.0213 7.85275 18.9209 10.1016 18.9209C11.9824 18.9209 13.7201 18.2667 15.1103 17.1831C16.5209 16.0792 17.5431 14.505 17.9724 12.706C18.0542 12.4198 17.8906 12.1336 17.6044 12.0722Z" fill="#6A8CDF"/>
</svg>
