<svg width="24" height="24" viewBox="0 0 24 24" fill="none" xmlns="http://www.w3.org/2000/svg">
<path d="M22 11.9998C22 17.5238 17.523 21.9998 12 21.9998C6.477 21.9998 2 17.5238 2 11.9998C2 6.47776 6.477 1.99976 12 1.99976C17.523 1.99976 22 6.47776 22 11.9998Z" fill="#C94545"/>
<path fill-rule="evenodd" clip-rule="evenodd" d="M12.8691 12.6307C12.8691 13.1127 12.4761 13.5057 11.9941 13.5057C11.5121 13.5057 11.1191 13.1127 11.1191 12.6307V8.21069C11.1191 7.72869 11.5121 7.33569 11.9941 7.33569C12.4761 7.33569 12.8691 7.72869 12.8691 8.21069V12.6307ZM11.1241 15.8035C11.1241 15.3215 11.5151 14.9285 11.9941 14.9285C12.4871 14.9285 12.8791 15.3215 12.8791 15.8035C12.8791 16.2855 12.4871 16.6785 12.0041 16.6785C11.5191 16.6785 11.1241 16.2855 11.1241 15.8035Z" fill="white"/>
</svg>
