<svg width="28" height="20" viewBox="0 0 28 20" fill="none" xmlns="http://www.w3.org/2000/svg">
<path d="M20.4864 19.712H9.85048C4.41891 19.712 0 15.2798 0 9.83196C0 7.26771 1.05432 4.76292 2.89264 2.9596C4.69634 1.19024 7.05414 0.240699 9.52957 0.289644C13.1492 0.359261 16.3787 2.52592 17.8548 5.7795C18.9444 5.22196 20.1532 4.96619 21.404 5.03466C23.2029 5.13353 24.8742 5.93443 26.1101 7.28981C27.3288 8.62637 28 10.3618 28 12.1765C28 16.3316 24.6294 19.712 20.4864 19.712ZM9.35266 1.92852C7.37373 1.92852 5.49265 2.70721 4.04146 4.13078C2.51573 5.62753 1.64062 7.70549 1.64062 9.83196C1.64062 14.3752 5.32355 18.0714 9.85048 18.0714H20.4864C23.7248 18.0714 26.3594 15.427 26.3594 12.1765C26.3594 10.7718 25.8403 9.42891 24.8977 8.39521C23.9535 7.35964 22.6807 6.74791 21.314 6.67282C20.0891 6.60501 18.9165 6.94489 17.9221 7.65403C17.7096 7.80551 17.4378 7.84686 17.19 7.76554C16.9421 7.68422 16.7477 7.4898 16.6664 7.24196C15.6442 4.12756 12.7635 1.99283 9.49802 1.92994C9.44951 1.92901 9.40106 1.92852 9.35266 1.92852Z" fill="white"/>
<path d="M16.8724 16.4599C15.962 16.4599 15.8877 16.4352 15.778 16.3986C15.517 16.3115 15.3138 16.1048 15.2341 15.8455C15.1001 15.4097 15.3146 15.1289 15.6115 14.7401C15.8422 14.4379 16.2716 13.8756 16.9919 12.8465C17.2136 12.5298 17.3051 12.3096 17.3423 12.1731L17.3503 12.1109C17.3317 11.9358 17.1831 11.7988 17.003 11.7988C16.8365 11.7988 16.6925 11.9168 16.6605 12.0793C16.5732 12.5239 16.1417 12.8131 15.6975 12.7262C15.253 12.6388 14.9634 12.2077 15.0507 11.7632C15.2334 10.8332 16.0544 10.1582 17.003 10.1582C18.1002 10.1582 18.9928 11.0508 18.9928 12.1479C18.9928 12.2654 18.9754 12.3955 18.949 12.51C18.8553 12.9141 18.6548 13.3318 18.336 13.7872C18.0489 14.1976 17.8064 14.5359 17.6033 14.8147C17.8511 14.8129 18.1082 14.8104 18.3559 14.8072C18.3594 14.8072 18.363 14.8072 18.3664 14.8072C18.8147 14.8072 19.1808 15.1677 19.1864 15.6172C19.1921 16.0702 18.8295 16.442 18.3765 16.4478C17.7125 16.4561 17.2285 16.4599 16.8724 16.4599Z" fill="white"/>
<path d="M9.45944 14.1884C7.03066 14.1884 5.05469 12.2124 5.05469 9.7836C5.05469 7.35488 7.03066 5.37891 9.45944 5.37891C11.8882 5.37891 13.8642 7.35488 13.8642 9.7836C13.8642 12.2124 11.8882 14.1884 9.45944 14.1884ZM9.45944 7.01953C7.9353 7.01953 6.69531 8.25952 6.69531 9.7836C6.69531 11.3077 7.9353 12.5477 9.45944 12.5477C10.9836 12.5477 12.2236 11.3077 12.2236 9.7836C12.2236 8.25952 10.9836 7.01953 9.45944 7.01953Z" fill="white"/>
</svg>
