<svg width="20" height="18" viewBox="0 0 20 18" fill="none" xmlns="http://www.w3.org/2000/svg">
<path d="M6.61312 0.875112C6.23028 0.880602 5.90365 1.15295 5.82836 1.52799L5.82832 1.52818L4.27171 9.31259H1.5625C1.11343 9.31259 0.75 9.67646 0.75 10.1251C0.75 10.5737 1.11343 10.9376 1.5625 10.9376H4.9375C5.3248 10.9376 5.65801 10.6641 5.73415 10.2847L5.73417 10.2845L6.68193 5.54686L9.20823 16.4953C9.28994 16.8498 9.59786 17.1068 9.96114 17.1242L9.96113 17.1243L6.6167 1.12509M6.61312 0.875112L6.6167 1.12509M6.61312 0.875112C6.61272 0.875119 6.61233 0.875125 6.61194 0.875132L6.6167 1.12509M6.61312 0.875112C6.9699 0.868893 7.32925 1.12769 7.41669 1.50452L7.41676 1.50482L10.1421 13.3161M6.6167 1.12509C6.85998 1.12045 7.11325 1.30284 7.17316 1.56102L9.99051 13.771L10.1421 13.3161M10.1421 13.3161L10.2499 13.7833L12.8416 6.00956M10.1421 13.3161L12.6043 5.9308L12.8416 6.00956M12.8416 6.00956L12.6044 5.93049M12.8416 6.00956L12.6044 5.93049M12.6044 5.93049C12.7206 5.58094 13.0443 5.39149 13.3749 5.37538L13.3838 5.37495L13.3927 5.37515C13.7489 5.38307 14.058 5.62191 14.1564 5.96375L14.1565 5.96425L15.1127 9.31259H18.4375C18.8866 9.31259 19.25 9.67646 19.25 10.1251C19.25 10.5737 18.8866 10.9376 18.4375 10.9376H14.5C14.1373 10.9376 13.8187 10.6971 13.7186 10.3488L13.7185 10.3484L13.3153 8.93641L10.7707 16.5693C10.7707 16.5693 10.7706 16.5694 10.7706 16.5695L10.7706 16.5697L10.5334 16.4906L12.6044 5.93049Z" fill="#EE905A" stroke="#EE905A" stroke-width="0.5"/>
</svg>
