<svg width="20" height="20" viewBox="0 0 20 20" fill="none" xmlns="http://www.w3.org/2000/svg">
<g clip-path="url(#clip0_1638_59953)">
<path d="M9.99953 4.99023C7.23736 4.99023 4.99023 7.2378 4.99023 9.99998C4.99023 12.7622 7.23736 15.0097 9.99953 15.0097C12.7613 15.0097 15.0088 12.7626 15.0088 9.99998C15.0088 7.23736 12.7613 4.99023 9.99953 4.99023Z" fill="#EE905A"/>
<path d="M10.0009 3.51816C9.46099 3.51816 9.02344 3.0806 9.02344 2.54119V0.977414C9.02344 0.437555 9.46099 0 10.0009 0C10.5407 0 10.9783 0.437555 10.9783 0.977414V2.54119C10.9783 3.0806 10.5403 3.51816 10.0009 3.51816Z" fill="#EE905A"/>
<path d="M10.0009 16.4805C9.46099 16.4805 9.02344 16.918 9.02344 17.4579V19.0212C9.02344 19.5615 9.46099 19.9991 10.0009 19.9991C10.5407 19.9991 10.9783 19.5615 10.9783 19.0212V17.4579C10.9783 16.918 10.5403 16.4805 10.0009 16.4805Z" fill="#EE905A"/>
<path d="M14.5829 5.4166C14.2015 5.03485 14.2015 4.41616 14.5829 4.03441L15.6887 2.92856C16.07 2.54725 16.6891 2.54725 17.0709 2.92856C17.4527 3.31032 17.4527 3.92945 17.0709 4.31076L15.9651 5.4166C15.5837 5.79836 14.9651 5.79836 14.5829 5.4166Z" fill="#EE905A"/>
<path d="M5.41677 14.5835C5.03502 14.2013 4.41633 14.2013 4.03457 14.5835L2.92873 15.6889C2.54742 16.0702 2.54697 16.6898 2.92873 17.0711C3.31048 17.4524 3.92961 17.4524 4.31092 17.0711L5.41677 15.9648C5.79852 15.5835 5.79852 14.9644 5.41677 14.5835Z" fill="#EE905A"/>
<path d="M16.4805 10.0009C16.4805 9.46099 16.918 9.02344 17.4579 9.02344H19.0217C19.5615 9.02344 19.9991 9.46099 19.9991 10.0009C19.9991 10.5407 19.5615 10.9778 19.0217 10.9778H17.4579C16.918 10.9778 16.4805 10.5407 16.4805 10.0009Z" fill="#EE905A"/>
<path d="M3.51816 10.0009C3.51816 9.46099 3.0806 9.02344 2.54074 9.02344H0.977414C0.437555 9.02344 0 9.46099 0 10.0009C0 10.5407 0.437555 10.9778 0.977414 10.9778H2.54119C3.0806 10.9778 3.51816 10.5407 3.51816 10.0009Z" fill="#EE905A"/>
<path d="M14.5832 14.5829C14.9649 14.2015 15.5841 14.2015 15.9654 14.5829L17.0712 15.6887C17.453 16.0696 17.453 16.6891 17.0712 17.0705C16.6895 17.4518 16.0708 17.4518 15.689 17.0705L14.5832 15.9646C14.2014 15.5829 14.2014 14.9642 14.5832 14.5829Z" fill="#EE905A"/>
<path d="M5.41694 5.41649C5.79869 5.03474 5.79869 4.41605 5.41694 4.0343L4.31109 2.92889C3.92934 2.54714 3.31065 2.54714 2.92889 2.92889C2.54714 3.3102 2.54714 3.92934 2.92889 4.31065L4.03474 5.41649C4.41649 5.79869 5.03518 5.79869 5.41694 5.41649Z" fill="#EE905A"/>
</g>
<defs>
<clipPath id="clip0_1638_59953">
<rect width="20" height="20" fill="white"/>
</clipPath>
</defs>
</svg>
