<svg width="26" height="27" viewBox="0 0 26 27" fill="none" xmlns="http://www.w3.org/2000/svg">
<path fill-rule="evenodd" clip-rule="evenodd" d="M4.116 20.6073C4.116 23.1432 6.1713 25.1987 8.70632 25.1987C11.2414 25.1987 13.2966 23.1432 13.2966 20.6073C13.2966 19.0272 12.4993 17.6333 11.2816 16.8061C11.0741 16.6652 10.9499 16.4306 10.9499 16.1798V4.62523C10.9499 3.3857 9.94525 2.38114 8.70632 2.38114C7.46739 2.38114 6.46278 3.3857 6.46278 4.62523V16.1798C6.46278 16.4306 6.33856 16.6652 6.13107 16.8061C4.91343 17.6333 4.116 19.0272 4.116 20.6073ZM8.70632 26.7131C5.33462 26.7131 2.60156 23.9793 2.60156 20.6073C2.60156 18.6521 3.52111 16.9119 4.94834 15.7954V4.62523C4.94834 2.54955 6.63074 0.866695 8.70632 0.866695C10.7819 0.866695 12.4643 2.54955 12.4643 4.62523V15.7954C13.8916 16.9119 14.8111 18.6521 14.8111 20.6073C14.8111 23.9793 12.0781 26.7131 8.70632 26.7131ZM5.63046 20.6077C5.63046 22.3046 7.00945 23.6841 8.70634 23.6841C10.4032 23.6841 11.7822 22.3046 11.7822 20.6077C11.7822 19.1721 10.7951 17.9636 9.46351 17.6256V7.64201C9.46351 7.22381 9.12449 6.88479 8.70629 6.88479C8.28809 6.88479 7.94907 7.22381 7.94907 7.64201V17.6256C6.61752 17.9637 5.63046 19.1722 5.63046 20.6077ZM8.70634 22.1696C7.84614 22.1696 7.1449 21.4685 7.1449 20.6077C7.1449 19.747 7.84615 19.0458 8.70634 19.0458C9.56653 19.0458 10.2678 19.747 10.2678 20.6077C10.2678 21.4685 9.56654 22.1696 8.70634 22.1696Z" fill="white"/>
<rect x="15" y="2" width="9" height="1.5" rx="0.75" fill="white"/>
<rect x="15" y="5.5" width="9" height="1.5" rx="0.75" fill="white"/>
<rect x="15" y="9" width="9" height="1.5" rx="0.75" fill="white"/>
<rect x="15" y="12.5" width="9" height="1.5" rx="0.75" fill="white"/>
</svg>
