<svg width="14" height="14" viewBox="0 0 14 14" fill="none" xmlns="http://www.w3.org/2000/svg">
<path d="M13.6593 7.97765C13.5161 7.9417 13.3729 7.97765 13.2476 8.06754C12.7821 8.46304 12.2451 8.78663 11.6543 9.00235C11.0993 9.21808 10.4907 9.32594 9.84617 9.32594C8.3961 9.32594 7.07134 8.7327 6.12253 7.77991C5.17372 6.82712 4.58295 5.49681 4.58295 4.04066C4.58295 3.42944 4.69036 2.83619 4.86938 2.29688C5.0663 1.72161 5.35274 1.20027 5.72868 0.750841C5.8898 0.553092 5.854 0.265458 5.65707 0.103664C5.53176 0.0137778 5.38854 -0.0221765 5.24533 0.0137778C3.72364 0.427252 2.39889 1.34409 1.45007 2.56653C0.537064 3.771 0 5.26311 0 6.88105C0 8.84056 0.787694 10.6203 2.07665 11.9147C3.3656 13.209 5.12001 14 7.08924 14C8.73624 14 10.2579 13.4247 11.4753 12.4719C12.7105 11.5012 13.6056 10.1169 13.9816 8.53495C14.0532 8.28327 13.91 8.03159 13.6593 7.97765Z" fill="white"/>
</svg>
