<svg width="16" height="16" viewBox="0 0 16 16" fill="none" xmlns="http://www.w3.org/2000/svg">
<g clip-path="url(#clip0_1509_27196)">
<path d="M7.99995 2.81453C7.56806 2.81453 7.21802 2.46448 7.21802 2.03295V0.781931C7.21802 0.350044 7.56806 0 7.99995 0C8.43184 0 8.78188 0.350044 8.78188 0.781931V2.03295C8.78188 2.46448 8.43148 2.81453 7.99995 2.81453Z" fill="white"/>
<path d="M7.99956 13.1766C8.43145 13.1766 8.78149 13.5266 8.78149 13.9581L8.78149 15.2092C8.78149 15.641 8.43145 15.9911 7.99956 15.9911C7.56768 15.9911 7.21763 15.641 7.21763 15.2092L7.21763 13.9581C7.21763 13.5266 7.56803 13.1766 7.99956 13.1766Z" fill="white"/>
<path d="M11.6663 4.33342C11.3612 4.02801 11.3612 3.53306 11.6663 3.22766L12.551 2.34298C12.856 2.03793 13.3513 2.03793 13.6567 2.34298C13.9621 2.64839 13.9621 3.14369 13.6567 3.44874L12.772 4.33342C12.467 4.63882 11.972 4.63882 11.6663 4.33342Z" fill="white"/>
<path d="M4.33322 11.6578C4.63827 11.9632 4.63827 12.4581 4.33323 12.7636L3.44855 13.6482C3.1435 13.9533 2.64819 13.9533 2.34279 13.6482C2.03739 13.3428 2.03739 12.8475 2.34279 12.5425L3.22747 11.6578C3.53252 11.3524 4.02747 11.3524 4.33322 11.6578Z" fill="white"/>
<path d="M13.1851 8.00068C13.1851 7.56879 13.5351 7.21875 13.967 7.21875H15.218C15.6499 7.21875 15.9999 7.56879 15.9999 8.00068C15.9999 8.43257 15.6499 8.78226 15.218 8.78226H13.967C13.5351 8.78226 13.1851 8.43257 13.1851 8.00068Z" fill="white"/>
<path d="M2.81453 8.00068C2.81453 7.56879 2.46448 7.21875 2.0326 7.21875H0.781931C0.350044 7.21875 0 7.56879 0 8.00068C0 8.43257 0.350044 8.78226 0.781931 8.78226H2.03295C2.46448 8.78226 2.81453 8.43257 2.81453 8.00068Z" fill="white"/>
<path d="M4.33338 4.33321C4.63878 4.0278 4.63878 3.53285 4.33338 3.22745L3.4487 2.34313C3.1433 2.03772 2.64835 2.03772 2.34294 2.34313C2.03754 2.64818 2.03754 3.14348 2.34294 3.44853L3.22762 4.33321C3.53302 4.63896 4.02797 4.63896 4.33338 4.33321Z" fill="white"/>
<path d="M11.6663 11.6578C11.3609 11.9632 11.3609 12.4581 11.6663 12.7635L12.5509 13.6478C12.8563 13.9532 13.3513 13.9532 13.6567 13.6478C13.9621 13.3428 13.9621 12.8475 13.6567 12.5424L12.772 11.6578C12.4666 11.352 11.9717 11.352 11.6663 11.6578Z" fill="white"/>
<path d="M7.99999 3.99219C5.79025 3.99219 3.99255 5.79024 3.99255 7.99998C3.99255 10.2097 5.79025 12.0078 7.99999 12.0078C10.2094 12.0078 12.0074 10.2101 12.0074 7.99998C12.0074 5.78988 10.2094 3.99219 7.99999 3.99219Z" fill="white"/>
</g>
<defs>
<clipPath id="clip0_1509_27196">
<rect width="16" height="16" fill="white"/>
</clipPath>
</defs>
</svg>
