<svg width="20" height="20" viewBox="0 0 20 20" fill="none" xmlns="http://www.w3.org/2000/svg">
<path fill-rule="evenodd" clip-rule="evenodd" d="M10 20.0001C4.48 20.0001 0 15.5301 0 10.0001C0 4.48012 4.48 0.00012207 10 0.00012207C15.53 0.00012207 20 4.48012 20 10.0001C20 15.5301 15.53 20.0001 10 20.0001ZM13.19 13.7098C13.31 13.7798 13.44 13.8198 13.58 13.8198C13.83 13.8198 14.08 13.6898 14.22 13.4498C14.43 13.0998 14.32 12.6398 13.96 12.4198L10.4 10.2998V5.67981C10.4 5.25981 10.06 4.92981 9.64999 4.92981C9.23999 4.92981 8.89999 5.25981 8.89999 5.67981V10.7298C8.89999 10.9898 9.03999 11.2298 9.26999 11.3698L13.19 13.7098Z" fill="white"/>
</svg>
