<svg width="26" height="26" viewBox="0 0 26 26" fill="none" xmlns="http://www.w3.org/2000/svg">
<g clip-path="url(#clip0_1638_59310)">
<path d="M21.6402 4.08568L21.6402 4.08569C22.0162 4.6791 22.4347 5.37704 22.7574 6.06877C23.0914 6.7846 23.2682 7.38186 23.2682 7.79983C23.2682 9.63706 21.772 11.1333 19.9349 11.1333C18.0978 11.1333 16.6016 9.63712 16.6016 7.79983C16.6016 7.38189 16.7784 6.78464 17.1124 6.0688C17.4351 5.37705 17.8536 4.67909 18.2296 4.08569L18.2296 4.08568C19.0288 2.8242 19.8193 1.79255 19.8465 1.75696L19.9349 1.64191L20.0237 1.75759L20.0239 1.7578C20.0505 1.79237 20.8409 2.82407 21.6402 4.08568Z" stroke="white" stroke-width="2"/>
<path d="M6.25609 10.0829L5.41137 9.54766L6.25609 10.0829C7.81116 7.6285 9.34499 5.57991 9.70907 5.09971C10.0727 5.57926 11.6067 7.6281 13.1621 10.0829C14.3657 11.9825 15.256 13.6126 15.8423 14.9691C16.4364 16.3434 16.6838 17.3591 16.6838 18.0542C16.6838 21.8991 13.5541 25.0289 9.70912 25.0289C5.86414 25.0289 2.73438 21.8991 2.73438 18.0542C2.73438 17.3591 2.98181 16.3434 3.57584 14.9691C4.16222 13.6126 5.05248 11.9825 6.25609 10.0829Z" stroke="white" stroke-width="2"/>
<path d="M6.06641 17.9922C6.06641 20.0182 7.81596 21.6666 9.96642 21.6666" stroke="white" stroke-width="2" stroke-linecap="round"/>
</g>
<defs>
<clipPath id="clip0_1638_59310">
<rect width="26" height="26" fill="white"/>
</clipPath>
</defs>
</svg>
